<svg xmlns="http://www.w3.org/2000/svg" xmlns:xlink="http://www.w3.org/1999/xlink" width="121" height="121" viewBox="0 0 121 121"><defs><clipPath id="a"><rect width="121" height="121" fill="#fafafa"/></clipPath></defs><g clip-path="url(#a)"><path d="M112.263,120.5H28.478a1.264,1.264,0,0,0-.3-.177c-5.311-1.393-8.154-5.066-8.156-10.56,0-5.84-.017-11.681.017-17.521a2.475,2.475,0,0,0-.816-1.943c-4.79-4.744-9.515-9.555-14.335-14.267C2.674,73.866.664,71.629,0,68.487V65.192a14.483,14.483,0,0,1,4.121-6.666Q30.992,31.743,57.768,4.863C59.924,2.7,62.1.686,65.192,0h3.295a13.343,13.343,0,0,1,6.182,3.6Q89.406,18.445,104.23,33.208c1.772,1.774,3.559,3.534,5.305,5.332a8.655,8.655,0,0,1,2.722,6.063,51.381,51.381,0,0,1-.6,5.684,9.047,9.047,0,0,1,6.462,3.559A31.212,31.212,0,0,1,120.5,58.6v53.66c-.1.242-.215.478-.288.728a9.8,9.8,0,0,1-4.447,5.981,30,30,0,0,1-3.5,1.528M70.292,54.278q-19.82,0-39.641,0c-3.987,0-6.477,2.311-6.483,6.142q-.044,24.937,0,49.875a5.913,5.913,0,0,0,6.254,6.178q39.877.024,79.753,0a6.029,6.029,0,0,0,6.3-6.3q.031-24.82-.038-49.64a7.64,7.64,0,0,0-1.084-3.631c-1.2-2.047-3.227-2.642-5.538-2.637q-19.762.042-39.524.014M82.781,17.489l-32.7,32.672c-.207-.041-.169-.027-.13-.027q27.824.011,55.647-.006a1.935,1.935,0,0,0,1.258-.642,5.989,5.989,0,0,0-.4-8.286c-3.66-3.716-7.366-7.387-11.052-11.076L82.781,17.489M5.807,71.045c2.131-2.136,4.3-4.238,6.386-6.414,3.521-3.669,6.987-7.39,10.493-11.073A22.243,22.243,0,0,1,24.442,52c.772-.656,1.614-1.239,2.327-1.952Q48.41,28.44,70.032,6.81a9.372,9.372,0,0,1,1.149-.848c-2.789-2.587-6.337-2.4-9.019.281Q34.215,34.192,6.279,62.149a10.166,10.166,0,0,0-1.153,1.329,5.839,5.839,0,0,0,.681,7.567M32.593,50.156c3.409,0,6.655-.028,9.9.019a2.582,2.582,0,0,0,2.051-.84Q61.608,32.208,78.712,15.121c.274-.274.535-.561.641-.672l-5.532-5.5L32.593,50.156M14.361,79.468c1.717-1.712,3.509-3.461,5.242-5.266a1.973,1.973,0,0,0,.409-1.25c.034-3.092.02-6.185.014-9.277a6.751,6.751,0,0,0-.08-.771L8.839,73.947l5.523,5.521M17.6,82.3l2.358,2.458V79.906L17.6,82.3" fill="#fafafa"/><path d="M129.2,255.993c2,0,4-.012,5.994,0a3.975,3.975,0,0,1,4.062,3.981q.06,4.054,0,8.109a3.838,3.838,0,0,1-3.729,3.93q-6.343.129-12.69,0a3.844,3.844,0,0,1-3.725-3.945c-.075-2.7-.084-5.408,0-8.108a3.974,3.974,0,0,1,4.209-3.964c1.959-.008,3.918,0,5.877,0m-5.915,11.928h11.805v-7.868H123.288Z" transform="translate(-91.036 -195.741)" fill="#fafafa"/><path d="M125.4,396.362c-1.255,0-2.51.022-3.765-.006a2.074,2.074,0,1,1-.025-4.117q3.764-.054,7.529,0a2.111,2.111,0,0,1,2.283,2.042,2.151,2.151,0,0,1-2.376,2.073c-1.215.025-2.431.005-3.647.005" transform="translate(-91.215 -299.904)" fill="#fafafa"/><path d="M193.766,396.364c-1.214,0-2.429.019-3.643,0-1.466-.029-2.342-.819-2.342-2.064s.859-2.039,2.349-2.057c2.467-.031,4.936-.036,7.4,0a2.054,2.054,0,0,1,2.294,2.117,2.094,2.094,0,0,1-2.3,2c-1.253.028-2.507.006-3.76.006" transform="translate(-143.586 -299.906)" fill="#fafafa"/><path d="M262.008,396.353c-1.253,0-2.507.027-3.76-.008a2.057,2.057,0,0,1-2.234-2.052,2.028,2.028,0,0,1,2.225-2.058c2.545-.043,5.092-.048,7.637,0a2,2,0,0,1,2.169,2.1,2.056,2.056,0,0,1-2.276,2.005c-1.253.029-2.507.006-3.76.006" transform="translate(-195.761 -299.896)" fill="#fafafa"/><path d="M125.222,430.569c-1.176,0-2.352.012-3.528,0a2.154,2.154,0,0,1-2.407-2.03,2.081,2.081,0,0,1,2.26-2.046q3.821-.061,7.644,0a2.069,2.069,0,0,1,2.23,2.072,2.156,2.156,0,0,1-2.318,2c-.039,0-.078,0-.118,0h-3.763" transform="translate(-91.212 -326.091)" fill="#fafafa"/><path d="M193.748,430.567c-1.253,0-2.507.022-3.759-.006a2.025,2.025,0,0,1-2.21-2.062,1.956,1.956,0,0,1,2.131-2.006q3.875-.073,7.752,0a1.983,1.983,0,0,1,2.162,2.1,2.089,2.089,0,0,1-2.318,1.969c-1.253.019-2.506,0-3.759,0" transform="translate(-143.585 -326.09)" fill="#fafafa"/><path d="M123.255,345.288a19.912,19.912,0,0,1-.012,1.995,2.087,2.087,0,0,1-2.087,1.979,2.041,2.041,0,0,1-1.982-1.958,35.179,35.179,0,0,1,0-4.224,2.039,2.039,0,0,1,2.015-1.924,2.08,2.08,0,0,1,2.04,1.9,20.045,20.045,0,0,1,.016,2.229h.007" transform="translate(-91.079 -260.865)" fill="#fafafa"/><path d="M358.134,345.214c0-.665-.041-1.334.009-2a2.11,2.11,0,0,1,2.014-2.062,2.045,2.045,0,0,1,2.062,2,33.892,33.892,0,0,1,0,4.105,2.041,2.041,0,0,1-2.056,2,2.12,2.12,0,0,1-2.029-2.169c-.035-.624-.006-1.252-.006-1.878h0" transform="translate(-273.834 -260.864)" fill="#fafafa"/><path d="M396.334,345.216c0,.665.044,1.334-.009,2a2.089,2.089,0,0,1-2.024,2.05,2.041,2.041,0,0,1-2.054-2,34.184,34.184,0,0,1,0-4.106,2.037,2.037,0,0,1,2.064-2,2.11,2.11,0,0,1,2.013,2.064c.051.661.009,1.33.009,2" transform="translate(-299.884 -260.864)" fill="#fafafa"/><path d="M157.444,345.22c0,.626.029,1.253,0,1.878a2.1,2.1,0,0,1-2.029,2.163,2.035,2.035,0,0,1-2.041-2.011,35.431,35.431,0,0,1,0-4.1,2.03,2.03,0,0,1,2.057-1.991,2.114,2.114,0,0,1,2,2.07c.045.662.008,1.33.01,1.995" transform="translate(-117.23 -260.863)" fill="#fafafa"/><path d="M191.708,345.174c0,.7.038,1.41-.01,2.111a2.045,2.045,0,0,1-2.071,1.976,2,2,0,0,1-1.944-1.96c-.057-1.4-.059-2.816.007-4.22a1.977,1.977,0,0,1,1.976-1.924,2.087,2.087,0,0,1,2.034,2.023c.041.662.008,1.329.007,1.994" transform="translate(-143.479 -260.865)" fill="#fafafa"/><path d="M225.868,345.213c0,.7.035,1.41-.008,2.11a2.035,2.035,0,0,1-1.98,1.939,1.983,1.983,0,0,1-2-1.893c-.053-1.444-.053-2.893,0-4.337a1.988,1.988,0,0,1,2.012-1.881,2.051,2.051,0,0,1,1.961,1.835c.059.738.012,1.484.012,2.227h0" transform="translate(-169.628 -260.86)" fill="#fafafa"/><path d="M259.95,345.27c0,.7.037,1.41-.009,2.11a1.991,1.991,0,0,1-3.978-.065q-.06-2.109,0-4.221a1.991,1.991,0,0,1,3.979-.052c.046.74.009,1.485.008,2.227" transform="translate(-195.698 -260.861)" fill="#fafafa"/><path d="M328.041,345.214a21.652,21.652,0,0,1-.015,2.225,1.986,1.986,0,0,1-1.953,1.825,2.029,2.029,0,0,1-2.043-1.882,41.5,41.5,0,0,1,0-4.339,2.041,2.041,0,0,1,2.046-1.883,1.99,1.99,0,0,1,1.952,1.828,21.006,21.006,0,0,1,.014,2.225" transform="translate(-247.725 -260.867)" fill="#fafafa"/><path d="M430.609,345.309c0,.665.044,1.333-.01,1.994a2.061,2.061,0,0,1-1.979,1.961,1.98,1.98,0,0,1-2.031-1.869,38.545,38.545,0,0,1-.006-4.335,1.974,1.974,0,0,1,2-1.9A2.1,2.1,0,0,1,430.6,343.2c.045.7.008,1.408.008,2.112h0" transform="translate(-326.141 -260.864)" fill="#fafafa"/></g></svg>