<svg xmlns="http://www.w3.org/2000/svg" xmlns:xlink="http://www.w3.org/1999/xlink" width="166.564" height="120.378" viewBox="0 0 166.564 120.378"><defs><clipPath id="a"><rect width="166.564" height="120.378" fill="#fafafa"/></clipPath></defs><g clip-path="url(#a)"><path d="M166.564,8.132V88.82c-.182.439-.38.872-.542,1.318a10.155,10.155,0,0,1-7.385,6.668,22.788,22.788,0,0,1-3.091.375c-.284,7.315-3.958,11.337-11.349,11.678-.026.6-.053,1.083-.068,1.567a10.119,10.119,0,0,1-10.142,9.942q-61.946.021-123.892.006a8.843,8.843,0,0,1-6.961-2.955A34.913,34.913,0,0,1,0,112.246V64.419c.948-.928,1.961-1.779,3.4-1.172,1.457.616,1.5,1.917,1.5,3.285q-.035,18.7-.014,37.407v2.01L54.684,78.582,4.878,38.7v1.966c0,4.663.063,9.327-.061,13.986a3.325,3.325,0,0,1-1.329,2.328c-.549.363-1.617.066-2.413-.12-.407-.095-.721-.589-1.076-.9v-24.4c.136-.342.282-.68.405-1.026a10.232,10.232,0,0,1,7.368-6.909,26.829,26.829,0,0,1,3.245-.444c.28-7.3,3.948-11.323,11.416-11.66,0-.6-.012-1.079,0-1.562A10.115,10.115,0,0,1,32.57.009Q94.522-.012,156.475,0a8.81,8.81,0,0,1,6.96,2.954,35.424,35.424,0,0,1,3.13,5.175M139.173,38.787,89.488,78.573c3.086,1.7,6.018,3.326,8.953,4.944q5.686,3.133,11.374,6.262c1.757.972,2.343,2.308,1.648,3.662-.723,1.409-2.218,1.641-4.093.633-.191-.1-.376-.214-.566-.318-6.783-3.722-13.579-7.42-20.333-11.194a1.657,1.657,0,0,0-2.249.2C82.281,84.4,80.3,86,78.248,87.514a10.171,10.171,0,0,1-12.518-.108c-1.9-1.438-3.822-2.869-5.569-4.482-1.022-.942-1.756-.762-2.806-.182Q37.961,93.453,18.535,104.1q-6.672,3.668-13.365,7.356a4.587,4.587,0,0,0,.182.709c1.209,2.638,3.429,3.346,6.127,3.345q60.577-.027,121.154-.014a11.573,11.573,0,0,0,1.623-.055,5.371,5.371,0,0,0,4.755-3.973l-9.261-5.095q-5.9-3.248-11.8-6.5c-1.883-1.039-2.464-2.364-1.671-3.765.778-1.374,2.211-1.561,4.108-.535.333.18.668.358,1,.541q8.323,4.57,16.647,9.137c.342.187.719.309,1.139.487ZM72.095,28.279H67.541q-28.381,0-56.76-.015a5.573,5.573,0,0,0-4.718,2.05c-1.245,1.574-1.188,2.036.36,3.275q30.9,24.744,61.8,49.477c2.646,2.118,5.031,2.126,7.663.039,3.439-2.727,6.852-5.487,10.279-8.231Q112.119,54.1,138.09,33.34a1.519,1.519,0,0,0,.47-2.314,5.5,5.5,0,0,0-5.151-2.759q-30.657.033-61.314.013M16.364,23.313h34.56q40.9,0,81.8-.027c3.695-.007,6.807,1.015,9.234,3.865.053.062.2.047.353.081,2.383-1.908,4.764-3.874,7.219-5.744a1.27,1.27,0,0,0,.34-1.922,5.483,5.483,0,0,0-5.19-2.989q-14.149.016-28.3,0c-1.794,0-2.813-.9-2.844-2.409-.031-1.536.952-2.485,2.736-2.486,9.758-.01,19.517-.077,29.271.094a14.43,14.43,0,0,1,5.3,1.7,12.71,12.71,0,0,1,2.609,2.147c2.356-1.884,4.636-3.807,7.031-5.576a1.556,1.556,0,0,0,.426-2.456c-1.365-2.193-3.45-2.723-5.871-2.722q-60.58.027-121.159.013c-.434,0-.869-.014-1.3.018-3.54.264-5.671,3.029-5.074,6.773h76.206c.6,0,1.2-.019,1.788.031a2.236,2.236,0,0,1,2.241,2.31,2.384,2.384,0,0,1-2.2,2.547,14.619,14.619,0,0,1-1.625.023q-40.983,0-81.965,0c-3.966,0-6.228,2.646-5.591,6.729M161.569,82.552V15.5c-2.04,1.625-3.917,3.077-5.728,4.607a1.84,1.84,0,0,0-.41,1.274q-.018,24.4.008,48.8c0,2.657-.027,5.314.027,7.969a1.784,1.784,0,0,0,.581,1.319c1.745,1.063,3.561,2.009,5.521,3.089m-11.3,11.607V27.248a30.75,30.75,0,0,1-3.359,2.614c-2.347,1.35-2.851,3.246-2.832,5.887.133,17.832.063,35.665.093,53.5,0,.624.164,1.546.582,1.817,1.708,1.107,3.545,2.014,5.516,3.094m-6.03,9.509c3.029.326,5.318-1.217,5.834-3.948l-5.834-3.171Zm11.285-11.741a4.864,4.864,0,0,0,5.815-3.827l-5.815-3.183Z" transform="translate(0 0)" fill="#fafafa"/></g></svg>