<svg xmlns="http://www.w3.org/2000/svg" xmlns:xlink="http://www.w3.org/1999/xlink" width="119.194" height="119.105" viewBox="0 0 119.194 119.105"><defs><clipPath id="a"><rect width="119.194" height="119.105" fill="#fafafa"/></clipPath></defs><g clip-path="url(#a)"><path d="M115.351,96.137H71.164v11.507h1.27c3.443,0,6.886-.014,10.329,0a7.608,7.608,0,0,1,7.559,7.568c.01,1.274,0,2.547,0,3.889h-57.6c-.03-2.854-.546-5.79,1.427-8.341a7.422,7.422,0,0,1,6.062-3.115c3.838-.019,7.676-.005,11.6-.005V96.152H7.691V94.8q0-12.433.012-24.868a1.859,1.859,0,0,0-.8-1.67,5.96,5.96,0,0,1-1.768-2.334c-1.7-4.306-3.283-8.655-4.885-13a4.126,4.126,0,0,1-.236-1.4q-.018-21.023,0-42.047A9.534,9.534,0,0,1,9.595,0a9.552,9.552,0,0,1,9.62,9.46c.014,1.918,0,3.835,0,5.917h1.576c30.667,0,61.336.037,92-.048,3.641-.01,6.678,2.744,6.378,6.449-.134,1.66-.023,3.341-.023,5.1h-3.8Zm-3.969-3.92V27H19.218v1.409q0,11.47-.011,22.941a4.845,4.845,0,0,1-.251,1.634c-1.584,4.307-3.157,8.62-4.846,12.886a6.927,6.927,0,0,1-1.83,2.437,1.854,1.854,0,0,0-.766,1.562c.028,7.087.016,14.173.019,21.26,0,.348.035.7.057,1.087ZM19.271,22.983h95.977c.235-3.22-.265-3.764-3.376-3.764h-92.6Zm17.307,92.281H86.419a3.829,3.829,0,0,0-3.922-3.771c-1.159-.032-2.32-.008-3.48-.008q-19.083,0-38.165,0c-2.548,0-4.009,1.289-4.274,3.776M7.6,15.432h-3.7V49.924H7.6Zm4.008,34.451h3.706V15.432H11.612Zm44.2,57.669H67.205V96.164H55.815ZM15.252,11.475c.451-3.078-.535-5.514-2.722-6.8a5.709,5.709,0,0,0-6.315.319,6.2,6.2,0,0,0-2.187,6.484Zm-.786,42.413H4.756C6.119,57.522,7.434,61.06,8.79,64.582c.106.273.515.623.757.6a1.208,1.208,0,0,0,.881-.606c1.363-3.518,2.674-7.057,4.037-10.692" transform="translate(0 0)" fill="#fafafa"/><path d="M109.821,40.272h7.656V78.726h-21v3.859h1.869c1.962,0,3.923-.022,5.884.007a3.751,3.751,0,0,1,3.711,3.645c.035,1.4.032,2.8,0,4.2a3.735,3.735,0,0,1-3.691,3.665q-9.726.035-19.453,0c-2.049-.006-3.446-1.416-3.825-3.838H67.6v-1.4q0-10.39.009-20.779A1.575,1.575,0,0,0,66.69,66.4a5.316,5.316,0,0,1-2.932-5,5.42,5.42,0,0,1,2.99-4.976,1.419,1.419,0,0,0,.866-1.475c-.034-4.4-.017-8.808-.017-13.213V40.31H79.1V36.537h30.72ZM80.993,86.4c.031-.255.041-.45.081-.639A3.842,3.842,0,0,1,85,82.588c2.5-.01,5.008,0,7.579,0,0-4.081.014-8-.028-11.916a1.382,1.382,0,0,0-.62-.885q-4.515-3.064-9.075-6.061a2.173,2.173,0,0,0-1.1-.347c-2-.034-4-.05-6,.014a1.979,1.979,0,0,0-1.075.645,23.653,23.653,0,0,1-2.427,2.407,1.586,1.586,0,0,0-.831,1.505c.026,5.8.014,11.608.018,17.412,0,.342.045.685.069,1.044ZM113.64,74.843V44.232h-3.809v3.777H96.422c0,1.324.055,2.521-.02,3.711a1.533,1.533,0,0,0,.841,1.534c3.739,2.46,7.458,4.951,11.182,7.434.343.229.676.472,1.1.768-4.22,2.815-8.279,5.513-12.32,8.237-.323.218-.725.607-.745.937-.084,1.383-.035,2.775-.035,4.214Zm-42.2-30.655c0,3.813-.017,7.491.03,11.17,0,.317.4.661.672.939.82.849,1.646,1.694,2.511,2.5a2.2,2.2,0,0,0,1.167.694c1.957.071,3.919.048,5.879.018a2.181,2.181,0,0,0,1.109-.317q4.607-3.029,9.175-6.117c.24-.162.556-.441.565-.676.052-1.459.026-2.919.026-4.458H79.1V44.188Zm34.542-3.809H83.068v3.7H105.98ZM86.5,61.438c2.646,1.766,5.087,3.415,7.562,5.011a1.172,1.172,0,0,0,1.022-.079c1.386-.866,2.731-1.8,4.09-2.7,1.075-.718,2.147-1.438,3.333-2.233-2.631-1.753-5.077-3.4-7.545-5.007a.932.932,0,0,0-.823-.049c-2.5,1.626-4.976,3.288-7.64,5.061m17.56,25.071H84.986v3.7h19.069ZM69.574,59.532a1.908,1.908,0,1,0-.055,3.814,1.908,1.908,0,0,0,.055-3.814" transform="translate(-9.941 -5.697)" fill="#fafafa"/><path d="M53.443,99.745h-30.6V72.985h30.6ZM26.677,95.872H49.592V76.8H26.677Z" transform="translate(-3.562 -11.379)" fill="#fafafa"/><rect width="26.749" height="3.703" transform="translate(23.122 30.814)" fill="#fafafa"/><rect width="26.745" height="3.714" transform="translate(23.153 46.207)" fill="#fafafa"/><rect width="26.791" height="3.691" transform="translate(23.117 53.887)" fill="#fafafa"/><rect width="17.141" height="3.701" transform="translate(23.121 38.504)" fill="#fafafa"/><rect width="5.614" height="3.717" transform="translate(44.289 38.517)" fill="#fafafa"/></g></svg>