<svg xmlns="http://www.w3.org/2000/svg" xmlns:xlink="http://www.w3.org/1999/xlink" width="81.785" height="86" viewBox="0 0 81.785 86"><defs><clipPath id="a"><rect width="81.785" height="86" fill="#008ad1"/></clipPath></defs><g clip-path="url(#a)"><path d="M133.232,117.215a2.325,2.325,0,0,1-2.056.868q-15.585-.038-31.169-.017c-1.646,0-2.043-.406-2.044-2.089,0-3.338.012-6.676-.005-10.013a6.466,6.466,0,0,1,3.773-6.235c2.75-1.413,5.459-2.906,8.207-4.323a1.213,1.213,0,0,0,.766-1.276,1.426,1.426,0,0,0-.754-1.489,11.626,11.626,0,0,1-6.307-10.611c-.042-3.234-.031-6.469.006-9.7a1.422,1.422,0,0,0-1.005-1.593,9.5,9.5,0,0,1-6.034-8.517c-.112-1.439.38-1.957,1.839-1.958,6.846-.007,13.693-.044,20.539.01a9.76,9.76,0,0,1,9.968,9.609c.108,2.369.068,4.748,0,7.12a1.759,1.759,0,0,1-.7,1.346c-.681.311-.633.756-.662,1.306a35.424,35.424,0,0,1-.364,5.128,11.24,11.24,0,0,1-5.877,7.82,1.444,1.444,0,0,0-.835,1.449,1.356,1.356,0,0,0,.873,1.426c2.386,1.22,4.706,2.573,7.124,3.724a7.832,7.832,0,0,1,4.716,5.212ZM106.537,71.6c0,3.965-.154,7.849.05,11.714a7.666,7.666,0,0,0,4.352,6.6c1.8.906,2.938,1.864,2.6,3.99,0,.024.037.055.086.122h4.107a6.225,6.225,0,0,0-.006-.873c-.222-1.454.409-2.207,1.765-2.8a8.294,8.294,0,0,0,5.069-6.562,49.066,49.066,0,0,0,.22-4.932,2.328,2.328,0,0,0-.727-1.9,5.706,5.706,0,0,1-1.147-2.138,32.55,32.55,0,0,1-.71-3.224Zm4.992,26.137c-3.225,1.713-6.143,3.246-9.043,4.812a2.879,2.879,0,0,0-1.638,2.48c-.064,3.366-.024,6.735-.024,10.156h9.911c.051-.305.108-.538.128-.774.371-4.49.775-8.977,1.075-13.472a17.324,17.324,0,0,0-.409-3.2m18.86,17.479c0-3.242-.018-6.369.007-9.5a3.517,3.517,0,0,0-2.059-3.4c-2.619-1.368-5.223-2.764-7.834-4.144-.2-.1-.408-.176-.871-.372a20.306,20.306,0,0,0-.368,3.357c.191,3.261.509,6.514.787,9.769.122,1.425.263,2.848.4,4.287ZM99.51,63.094a12.76,12.76,0,0,0,.54,1.536,6.873,6.873,0,0,0,6.517,4.075c5.329.011,10.658,0,15.988,0,1.7,0,2,.242,2.344,1.919.23,1.11.435,2.225.677,3.332a7.763,7.763,0,0,0,.353.979l.26-.06c0-1.492.011-2.984,0-4.476a7.062,7.062,0,0,0-7.38-7.308q-9.077-.009-18.154,0Zm15.275,38.083c-.392,4.7-.779,9.34-1.169,14.017h3.973c-.394-4.717-.782-9.354-1.172-14.017Zm-.608-4.188c-.033,1.313.7,1.377,1.667,1.409,1.1.036,1.058-.686,1.25-1.409Z" transform="translate(-51.446 -32.083)" fill="#008ad1"/><path d="M0,104.4a7.741,7.741,0,0,1,4.631-5.162c2.48-1.183,4.858-2.578,7.312-3.818a1.3,1.3,0,0,0,.761-1.39,1.352,1.352,0,0,0-.744-1.4A11.842,11.842,0,0,1,5.633,82.1c-.026-.688,0-1.377-.007-2.065,0-.727.191-1.49-.847-1.825-.284-.092-.508-.807-.516-1.241-.043-2.374-.093-4.754.014-7.124a9.715,9.715,0,0,1,9.789-9.576c6.952-.094,13.906-.032,20.859-.02,1.3,0,1.794.567,1.7,1.893A9.515,9.515,0,0,1,30.64,70.7a1.49,1.49,0,0,0-1.063,1.662c.056,3.1.017,6.2.022,9.3A11.792,11.792,0,0,1,23.14,92.715c-.655.362-.578.826-.6,1.364a1.116,1.116,0,0,0,.629,1.248c2.754,1.408,5.459,2.915,8.216,4.318a6.624,6.624,0,0,1,3.892,6.488c-.042,3.3-.006,6.61-.011,9.915,0,1.587-.43,2.007-2.026,2.007q-15.593,0-31.185.017A2.316,2.316,0,0,1,0,117.2ZM19.687,94.034a4.026,4.026,0,0,0,.062-.845c-.216-1.493.443-2.251,1.82-2.874a8.081,8.081,0,0,0,5.068-7c.258-3.833.112-7.693.135-11.542,0-.054-.076-.108-.107-.15H11.018c-.119.609-.179,1.161-.339,1.684-.327,1.074-.425,2.408-1.131,3.133a4.375,4.375,0,0,0-1.083,3.642c.015.412.01.825,0,1.238-.093,4.473,1.863,7.638,6.008,9.393a1.525,1.525,0,0,1,1.032,1.6c-.019.57,0,1.141,0,1.724Zm1.988,3.657a19.963,19.963,0,0,0-.376,3.379c.3,4.426.714,8.844,1.045,13.267.058.783.383.944,1.1.933,2.682-.038,5.366-.013,8.049-.018.295,0,.59-.044.926-.071,0-3.39.023-6.691-.014-9.991A2.8,2.8,0,0,0,30.97,102.7C28,101.048,25,99.472,21.675,97.691m-8.181.062c-3.2,1.709-6.215,3.274-9.18,4.926a2.989,2.989,0,0,0-1.469,2.789c0,2,0,3.991,0,5.986,0,1.23,0,2.459,0,3.743h9.9c.036-.209.079-.375.093-.543.4-4.66.834-9.317,1.159-13.983a12.8,12.8,0,0,0-.5-2.92M7.21,74.86l.217.064c.286-1.36.582-2.717.854-4.08C8.67,68.9,8.9,68.7,10.856,68.7c5.329,0,10.658.022,15.987-.011a6.8,6.8,0,0,0,6.763-5.542,2.546,2.546,0,0,0-.384-.057c-6.5,0-13-.042-19.494.021A6.693,6.693,0,0,0,7.26,68.734a47.117,47.117,0,0,0-.05,6.126m8.438,40.32h3.971c-.4-4.717-.786-9.353-1.173-13.959-1.645-.18-1.634-.179-1.736,1.233-.086,1.165-.206,2.327-.3,3.491-.253,3.042-.5,6.085-.76,9.235m3.421-18.189H16.186c.012,1.077.485,1.405,1.531,1.406s1.294-.48,1.351-1.406" transform="translate(0 -32.073)" fill="#008ad1"/><path d="M85.721,12.656A12.673,12.673,0,1,1,73.057,0,12.735,12.735,0,0,1,85.721,12.656M73.291,2.818a9.863,9.863,0,1,0,9.626,10.176A9.9,9.9,0,0,0,73.291,2.818" transform="translate(-32.156 -0.001)" fill="#008ad1"/><path d="M82.717,120.679A4.186,4.186,0,0,1,86.9,124.87a4.213,4.213,0,1,1-8.425.047,4.187,4.187,0,0,1,4.241-4.237m1.384,4.243a1.412,1.412,0,0,0-2.819-.108,1.41,1.41,0,1,0,2.819.108" transform="translate(-41.797 -64.274)" fill="#008ad1"/><path d="M140.845,24.131c1.806-1.4,2.411-1.561,3.06-.844.629.7.439,1.305-.932,2.919.59.916,2.2,1.757.769,3.033-1.225,1.093-1.991-.269-2.857-.981-.893.716-1.728,2.158-2.983.884-1.229-1.248.245-2.024.929-2.933-.681-.892-2.2-1.7-.876-2.968,1.24-1.187,2.041.226,2.89.889" transform="translate(-73.195 -12.134)" fill="#008ad1"/><path d="M37.516,41.876a1.568,1.568,0,0,1-1.541,1.586,1.527,1.527,0,0,1-1.6-1.512,1.572,1.572,0,1,1,3.142-.074" transform="translate(-18.307 -21.463)" fill="#008ad1"/><path d="M79.75,24.526c1.432-1.9,2.791-3.708,4.158-5.512.73-.963,1.54-1.186,2.256-.638s.706,1.379-.023,2.352q-2.407,3.213-4.832,6.412c-.912,1.2-1.621,1.244-2.712.2-.868-.83-1.746-1.65-2.592-2.5a1.43,1.43,0,0,1-.144-2.1,1.4,1.4,0,0,1,2.1.088c.586.525,1.142,1.084,1.786,1.7" transform="translate(-40.194 -9.631)" fill="#008ad1"/></g></svg>