<svg xmlns="http://www.w3.org/2000/svg" xmlns:xlink="http://www.w3.org/1999/xlink" width="86" height="86" viewBox="0 0 86 86"><defs><clipPath id="a"><rect width="86" height="86" fill="#008ad1"/></clipPath></defs><g clip-path="url(#a)"><path d="M0,118.11a2.283,2.283,0,0,1,2.218-.972c1.112.065,2.232-.013,3.346.027.605.022.877-.117,1-.787.316-1.72.683-3.437,1.152-5.122a14.027,14.027,0,0,1,8.058-9.686,2.41,2.41,0,0,0-.307-.4A8.491,8.491,0,0,1,12.3,94.382,24.282,24.282,0,0,1,12.67,88.6,9.006,9.006,0,0,1,22.3,81.98a9.131,9.131,0,0,1,8.263,8.5,34.312,34.312,0,0,1-.267,5.9c-.241,1.855-.728,2.424-3.038,5.129l1.535.846a18.774,18.774,0,0,1,7.612-5.411c-.6-.711-1.242-1.459-1.866-2.224A10.038,10.038,0,0,1,32.3,88.844c-.176-2.871-.328-5.735.97-8.443A10.744,10.744,0,0,1,45.1,74.509a10.563,10.563,0,0,1,8.477,10,35.84,35.84,0,0,1-.385,6.177,8.857,8.857,0,0,1-3.3,5.445c-.194.165-.394.324-.584.493-.043.039-.059.109.028-.062,1.931,1.264,3.844,2.5,5.736,3.77a6.085,6.085,0,0,1,.971.918c1.1,1.158,1.093,1.162,2.489.249-.015-.057-.011-.141-.049-.171a9.323,9.323,0,0,1-3.38-7.96,28.179,28.179,0,0,1,.174-3.811,9.12,9.12,0,0,1,9.744-7.586,9.222,9.222,0,0,1,8.436,8.856c.013.414,0,.829.014,1.243.128,3.6-.376,6.96-3.5,9.287.076.146.089.227.131.246,4.523,2.087,6.982,5.78,8.125,10.48.346,1.422.681,2.852.918,4.295.111.675.4.809,1,.786,1.114-.041,2.234.039,3.346-.027a2.289,2.289,0,0,1,2.218.972v2.1H0Zm26.287-.956c1.409,0,2.618-.026,3.825.011.575.018.827-.124.932-.75.311-1.852.7-3.691,1.085-5.529a1.562,1.562,0,0,1,1.929-1.363,1.635,1.635,0,0,1,1.091,2.13c-.364,1.8-.743,3.6-1.128,5.46H51.749c-.068-.35-.119-.658-.189-.961-.363-1.583-.76-3.158-1.084-4.747a1.464,1.464,0,0,1,1.126-1.82,1.5,1.5,0,0,1,1.812,1.147c.069.211.115.43.167.647.458,1.912.914,3.823,1.365,5.709h4.449c-.622-2.627-1.092-5.2-1.849-7.692a15.477,15.477,0,0,0-29.371-.016c-.754,2.491-1.238,5.063-1.886,7.773M50.648,86.61l-.141-.018c0-.606.015-1.212,0-1.817a7.674,7.674,0,0,0-7.041-7.4,7.536,7.536,0,0,0-8.072,6.21,26.319,26.319,0,0,0-.168,4.668,7.618,7.618,0,0,0,14.919,2.025,25.849,25.849,0,0,0,.506-3.667m-23.1,6.041c0-.573.016-1.147,0-1.719a6.141,6.141,0,0,0-5.576-5.905,5.973,5.973,0,0,0-6.475,4.846,21.526,21.526,0,0,0-.144,4.849,6.07,6.07,0,0,0,6.256,5.588,6.135,6.135,0,0,0,5.935-5.845c.025-.6,0-1.21.006-1.815M58.112,92.6l.059,0c0,.573-.012,1.147,0,1.719a6.15,6.15,0,0,0,5.51,5.969,6.008,6.008,0,0,0,6.552-4.869,23.607,23.607,0,0,0,.164-4.374,6.1,6.1,0,0,0-12.084-1.1,21.827,21.827,0,0,0-.2,2.656m11.85,24.526c-.341-1.466-.677-2.823-.967-4.191a1.411,1.411,0,0,1,.893-1.7,1.368,1.368,0,0,1,1.779.483,3.378,3.378,0,0,1,.438,1.146c.356,1.412.686,2.832,1.022,4.236h3.045c-.326-1.562-.643-3.055-.947-4.55a11.073,11.073,0,0,0-12.52-8.949,8.33,8.33,0,0,0-3.813,1.375c2.244,3.786,2.571,8.078,3.61,12.155ZM9.513,117.1h3.073c.4-1.624.783-3.2,1.17-4.776a1.513,1.513,0,0,1,1.626-1.308,1.56,1.56,0,0,1,1.4,2.124c-.314,1.314-.676,2.618-1.026,3.961h7.476c.988-4.135,1.383-8.4,3.614-12.183-.349-.177-.62-.331-.9-.458a11.1,11.1,0,0,0-15.152,6.878c-.553,1.851-.848,3.78-1.281,5.763" transform="translate(0 -34.494)" fill="#008ad1"/><path d="M85.72,21.239c-.224.789-.4,1.6-.682,2.365a10.652,10.652,0,0,1-9.707,7c-1.5.04-3,.051-4.494,0a1.317,1.317,0,0,0-1.457.87c-1.13,2.388-2.359,4.729-3.528,7.1-.333.673-.753,1.21-1.558,1.212s-1.228-.527-1.561-1.2c-1.195-2.427-2.433-4.834-3.616-7.267a1.1,1.1,0,0,0-1.171-.706q-5.164.043-10.329,0a1.028,1.028,0,0,0-1.1.67c-.679,1.44-1.424,2.847-2.121,4.279-.331.68-.817,1.309-1.575,1.125a2.632,2.632,0,0,1-1.466-1.144c-.82-1.4-1.461-2.9-2.239-4.321a1.27,1.27,0,0,0-.918-.57c-3.506-.04-7.013-.009-10.519-.041a1.033,1.033,0,0,0-1.074.707c-1.192,2.43-2.424,4.839-3.62,7.267-.333.675-.756,1.207-1.562,1.2s-1.224-.535-1.557-1.211c-1.182-2.4-2.421-4.769-3.572-7.182a1.243,1.243,0,0,0-1.314-.788,34.272,34.272,0,0,1-6.656-.329C3.8,29.259,1.089,26.251.166,21.678A2.826,2.826,0,0,0,0,21.239V9.376a3.9,3.9,0,0,0,.176-.533A10,10,0,0,1,4.908,1.775,28.519,28.519,0,0,1,9.376,0H76.344a2.545,2.545,0,0,0,.435.166,10.4,10.4,0,0,1,8,6.237,24.991,24.991,0,0,1,.942,2.973ZM64.279,34.793c.205-.385.312-.577.411-.773.856-1.707,1.727-3.408,2.56-5.127A2.126,2.126,0,0,1,69.5,27.53c1.749.089,3.506.031,5.259.022a7.651,7.651,0,0,0,7.894-7.916c.012-2.837.007-5.675,0-8.513a7.656,7.656,0,0,0-8.036-8.06q-5.882-.01-11.765,0-25.921,0-51.841,0a7.635,7.635,0,0,0-7.952,7.949c-.009,3-.029,5.995.008,8.991A7.443,7.443,0,0,0,9.334,27.37a36.18,36.18,0,0,0,5.243.177c3.241.023,3.242.006,4.707,2.947.687,1.381,1.371,2.764,2.145,4.326.826-1.664,1.555-3.137,2.286-4.609,1.313-2.64,1.313-2.653,4.217-2.659,3.826-.008,7.651.012,11.477.01a1.829,1.829,0,0,1,1.95,1.191c.4.978.948,1.9,1.5,2.986a21.878,21.878,0,0,0,1.277-2.552,2.341,2.341,0,0,1,2.632-1.655c3.921.051,7.846.112,11.762-.021a2.85,2.85,0,0,1,3.086,1.911c.793,1.762,1.708,3.468,2.657,5.373" fill="#008ad1"/><path d="M107.8,28.481c.879-1.832-.126-3.362-1.7-4.859-1.363-1.294-.924-2.687.949-2.858a5,5,0,0,0,4.564-3.405c.639-1.5,2.281-1.527,2.879-.028a5.068,5.068,0,0,0,4.839,3.458c1.409.1,1.822,1.54.907,2.644a4.2,4.2,0,0,1-.716.766,3.537,3.537,0,0,0-1.3,4.18,3.413,3.413,0,0,1,.093,1.23,1.505,1.505,0,0,1-2.156,1.186,20.1,20.1,0,0,1-2.266-1,1.632,1.632,0,0,0-1.7,0,17.069,17.069,0,0,1-1.991.915c-1.683.67-2.584-.02-2.4-2.226m3.27-1.364c1.382-1.195,2.58-1.037,4.009-.129a3.214,3.214,0,0,1,1.127-3.83,3.024,3.024,0,0,1-3.228-2.376,3,3,0,0,1-3.131,2.448,3.2,3.2,0,0,1,1.223,3.886" transform="translate(-48.888 -7.529)" fill="#008ad1"/><path d="M27.8,25.666c.832-1.784-.08-3.307-1.664-4.782-1.427-1.33-.995-2.724.937-2.91a4.706,4.706,0,0,0,4.474-3.356,1.588,1.588,0,0,1,3.029.026c.75,2.217,2.3,3.163,4.589,3.337a1.5,1.5,0,0,1,.954,2.73A5.069,5.069,0,0,0,38.276,26.3a1.455,1.455,0,0,1-2.22,1.635,5.472,5.472,0,0,0-6.005-.014c-1.456.845-2.435-.068-2.249-2.251M29.811,20.4a3.254,3.254,0,0,1,1.282,3.887,2.934,2.934,0,0,1,3.936-.105,3.232,3.232,0,0,1,1.151-3.759,3.043,3.043,0,0,1-3.164-2.411,3.007,3.007,0,0,1-3.2,2.387" transform="translate(-11.744 -6.277)" fill="#008ad1"/><path d="M73.1,18.342a4.771,4.771,0,0,1,4.461-1.135,4.51,4.51,0,0,1,2.4,7.292c-1.8,2.062-3.82,3.93-5.783,5.843a1.407,1.407,0,0,1-2.139-.05c-1.935-1.9-3.881-3.786-5.737-5.759a4.509,4.509,0,0,1,.094-6.169,4.6,4.6,0,0,1,6.089-.511c.2.149.391.312.612.49m.081,8.782c1.462-1.494,2.874-2.911,4.252-4.36a1.547,1.547,0,0,0-2.151-2.224c-.338.288-.631.627-.955.932a1.575,1.575,0,0,1-2.5-.018c-.3-.282-.588-.583-.9-.849A1.511,1.511,0,1,0,68.8,22.747c1.393,1.433,2.827,2.828,4.382,4.377" transform="translate(-30.235 -7.861)" fill="#008ad1"/></g></svg>