<svg xmlns="http://www.w3.org/2000/svg" xmlns:xlink="http://www.w3.org/1999/xlink" width="86" height="88.099" viewBox="0 0 86 88.099"><defs><clipPath id="a"><rect width="86" height="88.099" fill="#008ad1"/></clipPath></defs><g clip-path="url(#a)"><path d="M48.116,0c2.064,1.007,2.064,1.007,3.535,4.1a7.179,7.179,0,0,1,7.626,2.851,7.346,7.346,0,0,1-.121,9.287c-1.182,1.474-2.427,2.9-3.59,4.387a3.607,3.607,0,0,0-.693,1.509,16.848,16.848,0,0,1-3.651,7.849c-.986,1.191-1.963,2.392-3.011,3.527a1.219,1.219,0,0,0-.271,1.648,10.6,10.6,0,0,1,.526,1.24c1.954-.841,3.855-1.608,5.712-2.47a4.281,4.281,0,0,1,5.968,2.4c1.137,2.964,2.223,5.947,3.329,8.924q2.3,6.192,4.6,12.387a4.326,4.326,0,0,1-2.315,5.93c-1.933.982-3.876,1.946-5.9,2.962.65,1.564,1.281,3.088,1.917,4.611s.639,1.513,2.313,1.524c1.2.007,2.406-.028,3.6.074a3.783,3.783,0,0,1,3.407,2.61c.426,1.119.833,2.243,1.281,3.452-.455.185-.868.358-1.285.522Q60.366,83.541,49.64,87.754a6.739,6.739,0,0,0-.665.345h-.344c-.37-1.015-.721-2.038-1.116-3.043-.975-2.476-.693-3.82,1.209-5.634.85-.811,1.679-1.644,2.545-2.435a.838.838,0,0,0,.285-1.031q-1.135-3.332-2.192-6.69a.83.83,0,0,0-.832-.668c-2.047-.226-4.087-.5-6.134-.723a2.133,2.133,0,0,0-.975.22q-19.638,8.142-39.27,16.3c-.315.131-.634.251-1.01.4L0,82.25,25.792,71.535c-1.621-4.87-3.225-9.69-4.845-14.558L1.008,64.963c-.345-.924-.66-1.769-1.007-2.7,1.7-.695,3.358-1.373,5.016-2.048Q19.548,54.3,34.085,48.408a1.19,1.19,0,0,0,.845-1.03c.231-1.354.538-2.695.825-4.039a4.089,4.089,0,0,1,1.55-2.595c.4-.287.343-.518.238-.927a2.028,2.028,0,0,0-2.179-1.734,22.84,22.84,0,0,1-7.58-1.255A11.319,11.319,0,0,1,25,35.536c-1.643-1.283-3.525-1.48-5.464-1.642a33.111,33.111,0,0,1-3.747-.44,7.858,7.858,0,0,1-2.267-14.731,2.8,2.8,0,0,0,.25-.187c-.23-.685-.5-1.373-.691-2.079a4.165,4.165,0,0,1,2.8-5.393C19.9,9.593,23.937,8.155,27.97,6.7Q37.122,3.408,46.275.111c.048-.017.083-.073.123-.111ZM45.595,37.123c-.355-.953-.641-1.823-1-2.66A1.108,1.108,0,0,1,44.81,33.1c1.5-1.692,3.017-3.378,4.4-5.167A14.683,14.683,0,0,0,52.08,14.977c-.892-3.6-2.224-7.09-3.377-10.624-.421-1.289-1-1.555-2.286-1.092q-14.632,5.271-29.26,10.55c-1.293.467-1.566,1.086-1.057,2.388,1.176,3.011,2.331,6.031,3.548,9.025a15.08,15.08,0,0,0,11.458,9.6,62.067,62.067,0,0,0,7.156.776,1.041,1.041,0,0,1,1.067.758c.341.963.748,1.9,1.148,2.9l5.118-2.142m15.4,9.851-1.716-4.555L52.3,44.685l-.849-2.7,6.967-2.3c-.352-.922-.673-1.778-1-2.63-.44-1.13-1.11-1.441-2.223-.965q-7.806,3.333-15.59,6.717a1.766,1.766,0,0,0-.927,1.015c-.408,1.7-.7,3.421-1.019,5.138a1.089,1.089,0,0,0,.085.5q2.487,7.5,5,14.983a1.026,1.026,0,0,0,.693.566q4.252.557,8.517,1.019a3.092,3.092,0,0,0,1.587-.148c3.736-1.8,7.442-3.654,11.159-5.488a1.256,1.256,0,0,0,.721-1.636c-.19-.625-.463-1.223-.73-1.914L58,59.1c-.3-.958-.556-1.794-.835-2.695l6.532-2.154L61.986,49.7l-6.832,2.27c-.293-.925-.565-1.786-.854-2.7l6.691-2.3M29.5,53.408,33.2,64.529,30.5,65.4,26.93,54.554,23.658,55.84c1.626,4.885,3.229,9.7,4.846,14.556l11.539-4.86c-1.635-4.863-3.236-9.622-4.849-14.416L29.5,53.408M68.492,77.127c-.148-.894-.458-1.665-1.369-1.7-2-.078-4.1-.4-5.984.061-3.162.775-6.51,1.437-8.715,4.311a17.414,17.414,0,0,1-1.855,1.785c-.921.886-.979,1.62-.179,2.768l18.1-7.224M14.961,21.464a4.839,4.839,0,0,0-2.715,4.773,4.715,4.715,0,0,0,3.518,4.38,40.88,40.88,0,0,0,4.1.558c-2.435-3-3.45-6.428-4.9-9.711M55.49,16.316c.565-.717,1.171-1.435,1.718-2.2a4.658,4.658,0,0,0-1.484-6.747A4.25,4.25,0,0,0,52.7,6.91l2.792,9.406M54.155,74.54l5.124-1.731-2.244-5.177L52.42,69.449c.528,1.549,1.115,3.273,1.734,5.091" fill="#008ad1"/><path d="M7.87,44.531h2.791c-.127,4.915,2.021,7.965,7.134,8.6v2.7c-5.059.6-7.25,3.619-7.127,8.586H7.908c.117-4.906-2.017-7.971-7.13-8.575V53.081a7.3,7.3,0,0,0,5.474-2.611A8.284,8.284,0,0,0,7.87,44.531M6.722,54.486l2.523,2.536,2.534-2.543L9.262,51.93,6.722,54.486" transform="translate(-0.166 -9.503)" fill="#008ad1"/><path d="M94.878,44.523H97.7a8.025,8.025,0,0,0,1.572,5.927,7.193,7.193,0,0,0,5.457,2.612v2.831a7.147,7.147,0,0,0-5.462,2.618A7.978,7.978,0,0,0,97.7,64.392H94.83A8.121,8.121,0,0,0,93.224,58.5a7.121,7.121,0,0,0-5.457-2.6V53.1c3.979-.23,7.47-3.139,7.111-8.58m-1.107,9.935L96.3,56.983l2.508-2.509-2.5-2.508-2.538,2.492" transform="translate(-18.73 -9.501)" fill="#008ad1"/><path d="M90.414,8.222a8.2,8.2,0,0,0,1.634,5.956A7.2,7.2,0,0,0,97.5,16.762v2.757c-5.052.6-7.246,3.619-7.122,8.6H87.623c.124-4.9-2.012-7.964-7.13-8.6V16.776a7.274,7.274,0,0,0,5.465-2.61,8.126,8.126,0,0,0,1.615-5.944ZM89.023,15.61,86.46,18.176l2.555,2.564,2.527-2.56L89.023,15.61" transform="translate(-17.178 -1.755)" fill="#008ad1"/><path d="M55.818,29.307l-1.91-1.918c.009-.056,0-.126.028-.159,2.811-3.088,3.108-6.728,2.095-10.532-.554-2.079-1.472-4.061-2.272-6.211l2.2-1.428a22.218,22.218,0,0,1,3.443,11,12.248,12.248,0,0,1-3.581,9.25" transform="translate(-11.472 -1.933)" fill="#008ad1"/></g></svg>