<svg xmlns="http://www.w3.org/2000/svg" xmlns:xlink="http://www.w3.org/1999/xlink" width="100.47" height="62.009" viewBox="0 0 100.47 62.009"><defs><clipPath id="a"><rect width="100.47" height="62.009" fill="#f2f2f2"/></clipPath></defs><g clip-path="url(#a)"><path d="M12.951,0h1.373l4.738,2.885a2.314,2.314,0,0,0,.292-.156,4.02,4.02,0,0,1,4.806-.7,4.07,4.07,0,0,1,2.186,4.348,1.245,1.245,0,0,0,.543.938c1.871,1.135,3.761,2.242,5.682,3.29a19.233,19.233,0,0,0,2.863,1.24,2.71,2.71,0,0,0,2.529-.11,1.263,1.263,0,0,1,1.735.431,1.443,1.443,0,0,1-.574,2.228c-1.276.772-2.575,1.506-3.852,2.249a5.354,5.354,0,0,0,3.966,3.306c1.888.381,3.428-.454,4.969-1.367,2.234-1.322,3.351-1.2,5.289.487a4.222,4.222,0,0,0,4.386.887A4.438,4.438,0,0,0,56.7,16.908a1.4,1.4,0,0,1,1.818-1.039,1.427,1.427,0,0,1,.966,1.862c-.086.378-.217.746-.321,1.1.067.083.1.151.149.18q10.265,5.936,20.541,11.855a.962.962,0,0,0,.792.067c1.733-.964,3.442-1.973,5.2-2.993-.19-.363-.333-.65-.487-.931-.584-1.06-.487-1.828.3-2.317.808-.5,1.633-.2,2.249.846.725,1.233,1.436,2.474,2.183,3.766l7.036-4.071L84.575,3.505,77.562,7.556c.2.368.36.683.536.991q2.984,5.179,5.971,10.358c.569.991.388,1.837-.436,2.284-.773.418-1.548.134-2.1-.818-1.1-1.89-2.188-3.792-3.282-5.686-.979-1.693-1.962-3.383-2.976-5.13-2.18,1.256-4.291,2.489-6.42,3.693a9.018,9.018,0,0,1-9.5-.021c-1.841-1.058-3.691-2.1-5.516-3.186a6.478,6.478,0,0,0-7.135-.013,15.3,15.3,0,0,1-1.453.812,1.39,1.39,0,0,1-1.924-.621,1.376,1.376,0,0,1,.489-1.892c.508-.352,1.065-.635,1.6-.944a9.15,9.15,0,0,1,9.682,0c1.9,1.085,3.794,2.184,5.689,3.28a6.205,6.205,0,0,0,6.606.029c2.012-1.155,4.024-2.307,6.027-3.477a4.24,4.24,0,0,0,.717-.626,7.541,7.541,0,0,1,1.171-1.11c2.7-1.6,5.423-3.152,8.14-4.718,1.73-1,2.491-.79,3.493.945L100.47,25.118v1.177a5.439,5.439,0,0,1-.952.933q-4.435,2.607-8.913,5.143a1.79,1.79,0,0,1-2.542-.693c-.246-.371-.471-.756-.741-1.191l-4.554,2.64c1.259,2.084.781,3.925-.237,5.839s-2.152,3.516-4.417,3.764c-.514,3.543-2.887,7.658-6.545,7.376-.8,1.54-1.478,3.054-2.343,4.453a4.28,4.28,0,0,1-4.09,2.059,14.343,14.343,0,0,1-2.719-.706c-1.129,2.426-1.943,5.246-5.118,6.1H55.533l-6.164-3.215c-1.4.853-2.706,1.717-4.075,2.463a4.679,4.679,0,0,1-6.4-1.733c-.753-1.245-1.387-2.561-2.093-3.877-3.015.593-4.571-.112-6.178-2.945-.588-1.038-1.083-2.128-1.638-3.228-3.646.582-6.453-3.257-6.914-7.564-1.975-.321-3.008-1.768-3.966-3.4-.981-1.672-1.626-3.341-.906-5.261l-4.3-2.474a21.439,21.439,0,0,1-2.854,2.867,3.272,3.272,0,0,1-3.884-.122,5.941,5.941,0,0,1-1.832-2.3C3.576,29.489,4.546,28,5.463,26.5c-1.375-.8-2.72-1.533-4-2.359A10.651,10.651,0,0,1,0,22.763v-.981q5.767-9.988,11.548-19.97A16.836,16.836,0,0,1,12.951,0M43.931,48.609a.646.646,0,0,0,.18.063c4.428.2,6.562,2.432,6.538,6.793a1.029,1.029,0,0,0,.382.767c1.482.894,2.979,1.765,4.5,2.585a1.773,1.773,0,0,0,2.522-.749c.308-.5.575-1.025.858-1.541.914-1.667.71-2.42-.908-3.363-1.016-.591-2.053-1.151-3.038-1.79a1.362,1.362,0,0,1-.471-1.9,1.422,1.422,0,0,1,1.93-.606,8.377,8.377,0,0,1,.773.423c2.319,1.339,4.631,2.691,6.958,4.017a1.864,1.864,0,0,0,2.886-.778c.3-.507.572-1.027.851-1.544.768-1.42.537-2.3-.841-3.1-2.258-1.314-4.525-2.615-6.785-3.925a5.458,5.458,0,0,1-.829-.519,1.448,1.448,0,0,1,1.477-2.462,8.012,8.012,0,0,1,.864.458c3,1.731,5.992,3.47,9,5.193,1.353.776,2.213.531,3.018-.82.266-.449.525-.9.785-1.357.865-1.52.646-2.349-.868-3.226q-4.452-2.577-8.91-5.144c-.226-.131-.461-.25-.674-.4a1.439,1.439,0,0,1-.514-1.97,1.458,1.458,0,0,1,1.951-.567,7.81,7.81,0,0,1,.684.381q5.05,2.912,10.1,5.824c1.39.8,2.29.53,3.067-.879.3-.543.6-1.09.873-1.644a1.806,1.806,0,0,0-.774-2.735Q68.708,27.837,57.874,21.617a1.077,1.077,0,0,0-.929.01c-3.536,2.246-6.414,2.064-9.7-.591a1.4,1.4,0,0,0-1.185-.1c-.721.29-1.363.768-2.06,1.123a8.375,8.375,0,0,1-11.532-4.29,2.784,2.784,0,0,1,.365-2.867c.141-.192.287-.383.4-.538L24.793,9.566,14.116,28.059c1.513.876,2.96,1.69,4.38,2.551a1.117,1.117,0,0,0,1.325.011c1.565-.943,3.137-1.883,4.753-2.737a5.918,5.918,0,0,1,8.668,4.1,18.426,18.426,0,0,1-.135,3.952c2.626,1.032,3.944,3.2,3.959,6.18,4.482.245,5.933,1.638,6.865,6.5M6.947,23.934c1.4-2.422,2.734-4.739,4.073-7.056.49-.848.959-1.709,1.485-2.534a1.418,1.418,0,0,1,1.951-.562,1.473,1.473,0,0,1,.57,2.03c-.126.265-.289.512-.437.766q-3.621,6.278-7.241,12.557c-.48.836-.366,1.494.279,1.878s1.286.163,1.768-.674Q16.262,18.471,23.109,6.591c.5-.87.383-1.617-.308-1.946-.834-.4-1.353.039-1.752.741q-1.141,2-2.3,3.988c-.6,1.017-1.361,1.315-2.165.869-.826-.458-.957-1.315-.355-2.379.456-.809.918-1.614,1.4-2.457l-3.594-2.05L3.351,21.866l3.6,2.068m23.5,9.249a3.021,3.021,0,0,0-4.433-2.723c-1.79.937-3.525,1.982-5.256,3.028a1.731,1.731,0,0,0-.682,2.456c.369.726.783,1.432,1.22,2.12a1.779,1.779,0,0,0,2.614.667q2.564-1.427,5.082-2.939a2.889,2.889,0,0,0,1.455-2.608m3.631,8.487a3.059,3.059,0,0,0-4.439-2.8c-1.251.631-2.456,1.361-3.648,2.1a1.754,1.754,0,0,0-.65,2.469c.373.725.782,1.435,1.218,2.123a1.769,1.769,0,0,0,2.541.672c1.206-.652,2.388-1.349,3.559-2.063a3.008,3.008,0,0,0,1.418-2.5M37.659,45.1a1.524,1.524,0,0,0-.625.091c-1.453.8-2.935,1.556-4.312,2.471a1.56,1.56,0,0,0-.362,2.125,24.624,24.624,0,0,0,1.316,2.285,1.686,1.686,0,0,0,2.3.657,41.112,41.112,0,0,0,3.712-2.166,2.972,2.972,0,0,0,1.034-3.412,3.107,3.107,0,0,0-3.066-2.05m10.164,9.6c-.1-1.791-1.654-3.432-3.325-3a19.062,19.062,0,0,0-4.184,2.154c-.162.09-.238.382-.3.6-.3,1.048,1.355,4.069,2.41,4.38a1.3,1.3,0,0,0,.768.051c1.541-.6,3.108-1.213,4.094-2.645a6.1,6.1,0,0,0,.536-1.535" transform="translate(0 0)" fill="#f2f2f2"/></g></svg>