<svg xmlns="http://www.w3.org/2000/svg" xmlns:xlink="http://www.w3.org/1999/xlink" width="30.709" height="43.674" viewBox="0 0 30.709 43.674"><defs><clipPath id="a"><rect width="30.709" height="43.674" fill="#008ad1"/></clipPath></defs><g clip-path="url(#a)"><path d="M14.075,0h2.559l1.5.253A15.38,15.38,0,0,1,30.279,11.745c.173.77.288,1.552.43,2.329v2.559a1.13,1.13,0,0,0-.076.241,21.721,21.721,0,0,1-1.6,6.142,51.1,51.1,0,0,1-5.386,9.727c-2.3,3.375-4.665,6.709-7.021,10.047a6.37,6.37,0,0,1-.934.884h-.683a4.939,4.939,0,0,1-.84-.743c-1.365-1.9-2.7-3.828-4.046-5.739A95.307,95.307,0,0,1,3.3,26.522,29.926,29.926,0,0,1,.385,18.889c-.158-.745-.258-1.5-.385-2.255V14.075c.027-.108.058-.215.082-.325a26.1,26.1,0,0,1,.686-3.144A15.089,15.089,0,0,1,11.87.406C12.592.22,13.34.133,14.075,0m1.28,40.059a2.126,2.126,0,0,0,.156-.173c2.154-3.085,4.345-6.146,6.449-9.265A43.308,43.308,0,0,0,27.01,21.1a15.384,15.384,0,0,0,.907-8.1,12.785,12.785,0,0,0-25.35,2.2,15.538,15.538,0,0,0,.808,4.935,35.3,35.3,0,0,0,4.35,8.875c2.427,3.671,4.979,7.26,7.478,10.884a1.835,1.835,0,0,0,.152.169" fill="#008ad1"/><path d="M22.809,30.471a7.677,7.677,0,1,1,7.662-7.659,7.658,7.658,0,0,1-7.662,7.659m-.021-2.559a5.118,5.118,0,1,0-5.111-5.146,5.168,5.168,0,0,0,5.111,5.146" transform="translate(-7.44 -7.44)" fill="#008ad1"/></g></svg>