<svg xmlns="http://www.w3.org/2000/svg" xmlns:xlink="http://www.w3.org/1999/xlink" width="39.649" height="40.763" viewBox="0 0 39.649 40.763"><defs><clipPath id="a"><rect width="39.649" height="40.763" transform="translate(0 0)" fill="#008ad1"/></clipPath></defs><g clip-path="url(#a)"><path d="M0,12.659a8.551,8.551,0,0,1,.681-1.366,2.838,2.838,0,0,1,2.364-1.179c1.061-.007,2.123,0,3.184,0a3.07,3.07,0,0,1,3.1,2.3c.023.076.056.148.089.232h.933c0-.461.033-.923-.006-1.378a2.03,2.03,0,0,1,2.173-2.223,1.841,1.841,0,0,0,.3-.032c0-.637,0-1.257,0-1.878,0-.463.225-.738.592-.741s.6.278.6.733q0,2.527,0,5.055v.452h19.1v-6.5c-1.065,0-2.11,0-3.154,0a2.571,2.571,0,0,1-.668-.061A1.5,1.5,0,0,1,28.205,4.54c-.008-.955,0-1.911,0-2.866,0-.143,0-.287,0-.48H15.012c-.767,0-1,.231-1,.994,0,.65,0,1.3,0,1.95a.609.609,0,0,1-.609.682.6.6,0,0,1-.582-.667c-.006-.73,0-1.46,0-2.189A1.892,1.892,0,0,1,14.092.094,1.264,1.264,0,0,0,14.251,0h14.49a15.673,15.673,0,0,1,1.423,1.1c1.156,1.11,2.262,2.273,3.414,3.387a2.452,2.452,0,0,1,.807,1.944c-.027.858-.006,1.717-.006,2.589a2.181,2.181,0,0,0,.308.032,2.048,2.048,0,0,1,2.164,2.243c-.018.446,0,.894,0,1.355a2.516,2.516,0,0,1,1.919.806,9.892,9.892,0,0,1,.882,1.516V32.324a2.571,2.571,0,0,1-.255.237.592.592,0,0,1-.934-.409,3.239,3.239,0,0,1-.007-.4V15.794A1.7,1.7,0,0,0,36.5,13.853H9.462V38.139h27.2a1.646,1.646,0,0,0,1.785-1.781c0-.425.007-.849,0-1.274-.007-.335.021-.639.394-.782s.592.086.8.331v2.388c-.461,1.626-1.577,2.36-3.474,2.34-5.436-.058-10.873-.02-16.31-.02q-5.271,0-10.542,0c-.149,0-.37,0-.435.095a3.8,3.8,0,0,1-1.962,1.324H2.548a2.063,2.063,0,0,0-.213-.086,3.1,3.1,0,0,1-2.058-1.73c-.11-.235-.186-.487-.278-.731V12.659M8.214,25.454q0-6.067,0-12.134a1.9,1.9,0,0,0-2.018-2.013q-1.472-.006-2.944,0A1.929,1.929,0,0,0,1.2,13.344q-.005,12.095,0,24.189a1.933,1.933,0,0,0,2.056,2.036c.941,0,1.884-.027,2.825.008a2.018,2.018,0,0,0,2.149-2.148c-.042-3.991-.015-7.983-.015-11.975M29.446,2.176c0,.836-.01,1.663.015,2.488,0,.094.2.237.319.261a3.466,3.466,0,0,0,.672.013h1.731L29.446,2.176M12.792,12.642V10.29c-.785-.07-1.188.136-1.231.681s-.009,1.1-.009,1.671Zm22.8,0a1.366,1.366,0,0,0,.022-.157c0-.4,0-.794,0-1.191,0-.849-.336-1.123-1.211-.985v2.333Z" transform="translate(0 0)" fill="#008ad1"/><path d="M37.27,36.453H28.6c-1.02,0-1.472-.456-1.472-1.48,0-.663,0-1.326,0-1.989a1.19,1.19,0,0,1,1.132-1.245c.118-.012.239-.009.358-.009H45.963a3.125,3.125,0,0,1,.4.018,1.164,1.164,0,0,1,1.071,1.176c.014.7.007,1.406.005,2.109a1.255,1.255,0,0,1-1.413,1.42q-3.481,0-6.963,0H37.27m-8.931-1.261H46.214V32.973H28.339Z" transform="translate(-13.749 -16.083)" fill="#008ad1"/><path d="M29.706,63.3c.384,0,.768,0,1.152,0a1.327,1.327,0,0,1,1.418,1.377c.015.6.018,1.192,0,1.788a1.322,1.322,0,0,1-1.369,1.35q-1.212.019-2.423,0a1.3,1.3,0,0,1-1.359-1.381c0-.609,0-1.218,0-1.827a1.28,1.28,0,0,1,1.27-1.3c.437-.014.874,0,1.311,0m1.3,3.255V64.506c-.843,0-1.649-.005-2.455.009-.078,0-.22.124-.222.194-.018.606-.01,1.212-.01,1.843Z" transform="translate(-13.747 -32.083)" fill="#008ad1"/><path d="M29.693,47.94c-.384,0-.768.008-1.152,0a1.311,1.311,0,0,1-1.416-1.445c0-.569,0-1.139,0-1.708a1.271,1.271,0,0,1,1.334-1.351c.808,0,1.615,0,2.423,0a1.3,1.3,0,0,1,1.391,1.31c.025.621.024,1.245,0,1.866a1.314,1.314,0,0,1-1.35,1.324c-.409.019-.821,0-1.231,0v0m1.323-1.257V44.632c-.844,0-1.661-.005-2.477.009a.3.3,0,0,0-.21.2c-.017.6-.009,1.209-.009,1.837Z" transform="translate(-13.749 -22.015)" fill="#008ad1"/><path d="M60.424,63.3c.424,0,.848-.007,1.271,0A1.281,1.281,0,0,1,63,64.6c.012.622.011,1.245,0,1.866a1.279,1.279,0,0,1-1.279,1.338c-.86.026-1.722.026-2.581,0a1.285,1.285,0,0,1-1.28-1.3c-.028-.621-.026-1.245,0-1.866A1.3,1.3,0,0,1,59.272,63.3c.384,0,.768,0,1.152,0m1.368,1.21c-.863,0-1.682,0-2.5.008a.269.269,0,0,0-.194.178c-.015.617-.009,1.235-.009,1.853h2.7Z" transform="translate(-29.322 -32.084)" fill="#008ad1"/><path d="M29.7,57.865c-.437,0-.874.006-1.311,0A1.264,1.264,0,0,1,27.123,56.6q-.013-.993,0-1.986a1.182,1.182,0,0,1,1.047-1.2,27.883,27.883,0,0,1,3.011,0,1.211,1.211,0,0,1,1.088,1.263c.023.635.029,1.272,0,1.906a1.3,1.3,0,0,1-1.376,1.284c-.4,0-.794,0-1.191,0m1.307-1.194V54.624H28.314c0,.616-.011,1.2.011,1.777a.358.358,0,0,0,.235.257c.8.02,1.61.012,2.447.012" transform="translate(-13.745 -27.054)" fill="#008ad1"/><path d="M60.447,57.864c-.425,0-.849,0-1.274,0a1.212,1.212,0,0,1-1.253-1.095,17.329,17.329,0,0,1,0-2.3,1.109,1.109,0,0,1,1.061-1.06,29.413,29.413,0,0,1,2.978,0,1.168,1.168,0,0,1,1.06,1.195c.016.676.017,1.354,0,2.03a1.252,1.252,0,0,1-1.258,1.227c-.438.008-.876,0-1.314,0M59.124,56.67c.85,0,1.655.005,2.459-.008.081,0,.227-.116.23-.181.017-.617.01-1.235.01-1.866h-2.7Z" transform="translate(-29.34 -27.053)" fill="#008ad1"/><path d="M60.47,43.432c.438,0,.876-.008,1.314,0a1.25,1.25,0,0,1,1.238,1.2c.02.689.018,1.38,0,2.07a1.163,1.163,0,0,1-1.038,1.173,29.606,29.606,0,0,1-3.017,0,1.1,1.1,0,0,1-1.038-1.036,17.589,17.589,0,0,1,0-2.342,1.208,1.208,0,0,1,1.228-1.076H60.47m-1.34,3.243h2.7c0-.624.007-1.218-.009-1.811,0-.079-.12-.221-.187-.223-.828-.015-1.656-.01-2.5-.01Z" transform="translate(-29.343 -22.014)" fill="#008ad1"/><path d="M45.072,63.3c.424,0,.848-.009,1.271,0a1.3,1.3,0,0,1,1.29,1.293c.013.622.009,1.245,0,1.867a1.311,1.311,0,0,1-1.321,1.349q-1.252.029-2.5,0a1.316,1.316,0,0,1-1.335-1.339q-.018-.913,0-1.828A1.316,1.316,0,0,1,43.84,63.3c.41-.005.821,0,1.232,0m1.357,3.262c0-.631.011-1.211-.011-1.79a.363.363,0,0,0-.248-.252c-.741-.02-1.483-.017-2.225,0-.083,0-.234.115-.236.18-.018.616-.011,1.233-.011,1.865Z" transform="translate(-21.526 -32.084)" fill="#008ad1"/><path d="M45.047,57.851c-.41,0-.821,0-1.231,0a1.3,1.3,0,0,1-1.341-1.319c-.013-.622-.014-1.245,0-1.867a1.238,1.238,0,0,1,1.161-1.282,26.257,26.257,0,0,1,2.855,0,1.231,1.231,0,0,1,1.142,1.3c.008.622.01,1.245,0,1.867a1.289,1.289,0,0,1-1.314,1.3c-.424,0-.848,0-1.271,0m-1.325-1.194c.847,0,1.664.007,2.482-.011.076,0,.211-.156.214-.243.02-.528.02-1.058,0-1.586a.327.327,0,0,0-.221-.23c-.817-.017-1.635-.01-2.474-.01Z" transform="translate(-21.525 -27.04)" fill="#008ad1"/><path d="M45.057,43.433c.424,0,.847,0,1.271,0a1.275,1.275,0,0,1,1.3,1.234c.022.675.02,1.351,0,2.026a1.2,1.2,0,0,1-1.072,1.192,27.545,27.545,0,0,1-2.972.005,1.215,1.215,0,0,1-1.108-1.246c-.018-.648-.02-1.3,0-1.946a1.283,1.283,0,0,1,1.311-1.265c.424-.005.847,0,1.271,0m-1.336,1.2v2.045h2.7c0-.623.009-1.216-.01-1.807a.33.33,0,0,0-.227-.227c-.805-.017-1.61-.01-2.466-.01" transform="translate(-21.523 -22.015)" fill="#008ad1"/></g></svg>