<svg xmlns="http://www.w3.org/2000/svg" xmlns:xlink="http://www.w3.org/1999/xlink" width="26.424" height="33.294" viewBox="0 0 26.424 33.294"><defs><clipPath id="a"><rect width="26.424" height="33.294" fill="#232f3e"/></clipPath></defs><g transform="translate(0 0)"><g transform="translate(0 0)" clip-path="url(#a)"><path d="M0,29.448V3.778a.749.749,0,0,0,.059-.143A4.372,4.372,0,0,1,3.035.149C3.173.1,3.312.05,3.451,0h14.26a4.155,4.155,0,0,1,.346.294Q22.07,4.5,26.08,8.707a1.17,1.17,0,0,1,.344.848c0,6.416.007,12.832-.007,19.249a4.388,4.388,0,0,1-4.529,4.487q-2.816,0-5.632,0c-3.928,0-7.856.007-11.784,0a4.23,4.23,0,0,1-3.885-2.24A9.859,9.859,0,0,1,0,29.448M16.594,1.568c-.137-.006-.233-.014-.329-.014q-5.86,0-11.72,0A2.778,2.778,0,0,0,1.616,4.5q0,12.1,0,24.2a2.787,2.787,0,0,0,2.976,2.971q8.61,0,17.221,0a2.8,2.8,0,0,0,2.993-2.991q0-9.071,0-18.142v-.376h-.388c-1.411,0-2.821.006-4.232,0A3.5,3.5,0,0,1,16.6,6.586c-.011-1.227,0-2.454,0-3.681V1.568M23.68,8.535,18.234,2.816c0,1.438-.039,2.8.014,4.148a1.766,1.766,0,0,0,1.668,1.561c1.225.035,2.451.009,3.763.009" transform="translate(0 0)" fill="#232f3e"/><path d="M20.695,23.581v.345q0,4.121,0,8.241a.815.815,0,0,1-.7.9.794.794,0,0,1-.877-.647,2.622,2.622,0,0,1-.028-.454q0-4.006,0-8.012v-.372l-.1-.047c-.071.092-.134.19-.212.274q-1.438,1.553-2.878,3.1a.945.945,0,0,1-.756.379.746.746,0,0,1-.7-.455.784.784,0,0,1,.134-.882c.4-.443.809-.877,1.216-1.314q1.686-1.812,3.374-3.621a.838.838,0,0,1,1.414-.016q2.268,2.427,4.53,4.858a.846.846,0,0,1,.226.923.766.766,0,0,1-.662.507.858.858,0,0,1-.761-.353q-1.462-1.576-2.927-3.148c-.073-.079-.143-.161-.214-.243l-.082.03" transform="translate(-6.687 -9.598)" fill="#232f3e"/><path d="M18.216,48.859c2.17,0,4.34-.006,6.51.009a1.29,1.29,0,0,1,.659.206.672.672,0,0,1,.273.749.778.778,0,0,1-.574.605,1.739,1.739,0,0,1-.451.044q-6.4,0-12.792,0a1.465,1.465,0,0,1-.568-.1.774.774,0,0,1-.443-.887.83.83,0,0,1,.844-.626q3.271,0,6.543,0" transform="translate(-5.031 -22.736)" fill="#232f3e"/></g></g></svg>