<svg xmlns="http://www.w3.org/2000/svg" xmlns:xlink="http://www.w3.org/1999/xlink" width="51.205" height="95.852" viewBox="0 0 51.205 95.852"><defs><clipPath id="a"><rect width="51.205" height="95.852" transform="translate(0 0)" fill="#ee7d50"/></clipPath></defs><g transform="translate(0 0)"><g clip-path="url(#a)"><path d="M5.235,95.852C3.283,95.3,1.553,94.39.723,92.43a8.156,8.156,0,0,1-.691-3.058Q-.028,61.854.01,34.335A6.186,6.186,0,0,1,6.429,27.9c1.432-.02,2.865-.013,4.3,0,1.087.01,1.748.55,1.76,1.4s-.64,1.406-1.728,1.416c-1.433.013-2.865-.011-4.3.007a3.391,3.391,0,0,0-3.632,3.63q-.015,27.519,0,55.037a3.372,3.372,0,0,0,3.618,3.639q19.1.018,38.209,0c2.282,0,3.6-1.371,3.608-3.722q.021-9.548.006-19.1,0-17.643,0-35.287c0-3.019-1.176-4.2-4.167-4.2H30.841c.359.953.626,1.816,1.022,2.615.108.219.6.322.924.343.835.053,1.47.326,1.606,1.236a1.364,1.364,0,0,1-1.5,1.594c-1.93.026-3.861.008-5.792.009-2.833,0-5.667-.011-8.5.006-.882.005-1.665-.145-1.871-1.142-.192-.934.369-1.447,1.275-1.735-.117-.347-.212-.663-.33-.971Q11.957,17.755,6.239,2.841a6.792,6.792,0,0,1-.387-1.15A1.313,1.313,0,0,1,6.718.119,1.262,1.262,0,0,1,8.35.635a4.765,4.765,0,0,1,.465,1.014q5.97,15.567,11.918,31.144a1.176,1.176,0,0,0,1.34.913c2.236-.055,4.474-.02,6.82-.02-.14-.412-.236-.734-.356-1.046Q22.8,17.682,17.063,2.726a7.513,7.513,0,0,1-.324-.974A1.307,1.307,0,0,1,17.612.109a1.278,1.278,0,0,1,1.67.629,5.162,5.162,0,0,1,.371.854q2.682,6.974,5.361,13.95c.108.281.23.556.413,1,.172-.393.285-.628.378-.87Q28.5,8.65,31.2,1.63a6.763,6.763,0,0,1,.32-.776A1.367,1.367,0,0,1,33.309.121a1.37,1.37,0,0,1,.8,1.77c-.267.829-.6,1.637-.912,2.451-1.981,5.176-3.977,10.347-5.925,15.535a2.341,2.341,0,0,0,0,1.482c.694,1.967,1.492,3.9,2.2,5.858a.888.888,0,0,0,1.007.688c1.508-.02,1.507,0,2.066-1.454q4.761-12.431,9.523-24.86C42.577.267,43.258-.228,44.126.1c.938.352,1.117,1.128.579,2.534L35.456,26.8c-.12.315-.23.633-.4,1.094h1.451q3.876,0,7.754,0c3.932,0,6.206,1.956,6.8,5.834a1.692,1.692,0,0,0,.135.341V89.674a18.226,18.226,0,0,1-.709,2.586,6.352,6.352,0,0,1-4.71,3.592Z" fill="#ee7d50"/><path d="M33.389,53.486a23.8,23.8,0,0,1-.976,3.278,6.954,6.954,0,0,1-1.649,2.228,1.764,1.764,0,0,0-.574,1.962,8.119,8.119,0,0,1,7.162,4.324,10.271,10.271,0,0,0,.138-4.728c-.062-.4-.188-.789-.248-1.189a1.419,1.419,0,0,1,1.084-1.7,1.4,1.4,0,0,1,1.667,1.132,14.346,14.346,0,0,1-.278,8.742A14.754,14.754,0,0,1,27.573,77.6a15.058,15.058,0,0,1-14.6-6.763A14.851,14.851,0,0,1,14.79,52.394,17.333,17.333,0,0,1,17.6,50.1a1.349,1.349,0,0,0,.745-1.341,16.225,16.225,0,0,1-.007-2.057,4.526,4.526,0,0,1,4.634-4.609c1.805-.037,3.611-.027,5.417,0,2.85.035,4.791,1.763,4.754,4.627-.026,2.063.169,3.759,2.235,4.759a4.987,4.987,0,0,1,1.213,1.155,1.408,1.408,0,1,1-1.907,2.056c-.238-.2-.454-.427-.682-.639-.2-.187-.406-.372-.611-.559m-1.2,19.242.3.17c.917-.937,1.836-1.871,2.744-2.816a.673.673,0,0,0,.11-.347,5.127,5.127,0,0,0-4.832-5.885,1.155,1.155,0,0,0-.858.448c-1.914,3.1-5.729,3.118-7.6.028-.135-.222-.466-.514-.654-.481a10.81,10.81,0,0,0-3.2.771c-1.922,1.034-2.525,2.9-2.442,5,.033.824,2.139,2.827,3.247,3.127,0-.481-.015-.944,0-1.4.039-1.019.583-1.649,1.4-1.647s1.384.636,1.422,1.651c.031.809-.025,1.623.03,2.429a.873.873,0,0,0,.439.656,11.528,11.528,0,0,0,7.082-.174c0-1.074-.042-2.1.013-3.125a1.4,1.4,0,1,1,2.789.055c.028.515.005,1.033.005,1.55M25.835,50.534v0H24.06c-2.527,0-3.135.675-2.881,3.206.022.217.057.433.094.648a4.577,4.577,0,0,0,6.37,3.371c1.975-.9,2.921-2.817,2.691-5.466a1.7,1.7,0,0,0-1.792-1.749c-.9-.032-1.805-.007-2.707-.007m-12.157,14.9a8.179,8.179,0,0,1,7.766-4.462,1.5,1.5,0,0,0-.476-1.769,7.219,7.219,0,0,1-2.622-5.276c-.019-.258-.052-.514-.094-.916a12.533,12.533,0,0,0-4.574,12.423M21.187,47.7c1.409,0,2.7-.013,4,.006a1.1,1.1,0,0,0,1.187-.6,1.255,1.255,0,0,1,2.223-.021c.413.8,1.032.685,1.657.814.311-2.3-.276-2.989-2.486-2.989-1.585,0-3.17-.018-4.755.009a1.676,1.676,0,0,0-1.817,1.62,8.03,8.03,0,0,0-.009,1.165m3.248,13.235c-.011.922-.344,1.934.615,2.531a1.767,1.767,0,0,0,1.523.03c1.035-.589.663-1.657.691-2.561Z" fill="#ee7d50"/><path d="M25.608,83.788q-6.393,0-12.785,0a5.245,5.245,0,0,1-1.2-.1,1.37,1.37,0,0,1-.047-2.623,4.084,4.084,0,0,1,1.105-.124q12.879-.01,25.757,0c.156,0,.312-.006.467,0,1.006.073,1.635.637,1.621,1.45s-.638,1.382-1.663,1.391c-2.706.026-5.413.011-8.119.012H25.608" fill="#ee7d50"/><path d="M25.482,89.528c-1.618,0-3.236.012-4.854,0-1.079-.011-1.735-.575-1.715-1.425.02-.822.652-1.39,1.675-1.4q4.995-.027,9.989,0a1.4,1.4,0,0,1,1.592,1.447c-.014.859-.588,1.359-1.646,1.37-1.68.018-3.361,0-5.041,0" fill="#ee7d50"/></g></g></svg>