<svg xmlns="http://www.w3.org/2000/svg" xmlns:xlink="http://www.w3.org/1999/xlink" width="87.859" height="87.816" viewBox="0 0 87.859 87.816"><defs><clipPath id="a"><rect width="87.859" height="87.816" fill="#ee7d50"/></clipPath></defs><g transform="translate(0 0)"><g transform="translate(0 0)" clip-path="url(#a)"><path d="M35.762,75.758c-.406-.129-.819-.241-1.215-.394A5.8,5.8,0,0,1,30.806,70c-.026-6.89-.05-13.779.011-20.668a5.477,5.477,0,0,1,3.667-5.3,1.03,1.03,0,0,0,.734-1.127,47.084,47.084,0,0,1,.431-7.333c1.515-7.586,8.477-12.74,16.514-12.481A15.968,15.968,0,0,1,67.139,36.608a49.277,49.277,0,0,1,.221,6.243,1.053,1.053,0,0,0,.772,1.189A5.54,5.54,0,0,1,71.5,47.682c.088.269.184.534.277.8v22.3a19.458,19.458,0,0,1-1.184,2.6,6,6,0,0,1-3.789,2.378Zm15.526-2.922q7.118,0,14.235,0A2.993,2.993,0,0,0,68.856,69.5q0-9.82,0-19.641c0-2.221-1.156-3.386-3.377-3.387q-14.19,0-28.382,0c-2.224,0-3.378,1.163-3.38,3.387q0,9.776,0,19.554c0,2.29,1.136,3.424,3.422,3.425q7.075,0,14.148,0m7.3-29.334c0-1.57.029-3.052,0-4.532A7.3,7.3,0,0,0,44.37,36.8c-.728,2.194-.266,4.455-.4,6.741,4.7,0,9.265,0,13.833,0,.224,0,.448-.02.781-.035m5.848.037c0-1.71.037-3.281-.006-4.849a13.125,13.125,0,0,0-8.76-11.962,13.309,13.309,0,0,0-14.4,3.87C38,34.373,37.905,38.849,38.2,43.475H41.06c0-1.542-.018-3.024,0-4.5a10.2,10.2,0,0,1,14.48-9.106A9.856,9.856,0,0,1,61.5,38.949c.061,1.5.009,3.01.009,4.59h2.92" transform="translate(16.079 12.058)" fill="#ee7d50"/><path d="M23.027,87.816c-1-.2-2.016-.359-3.005-.607a19.681,19.681,0,0,1-9.253-5.127,78.1,78.1,0,0,1-6.4-6.674A20.193,20.193,0,0,1,5.8,48.7c9.617-9.745,19.338-19.388,29.02-29.066a2.905,2.905,0,0,1,4.345-.012c.47.455.888.965,1.544,1.685a6.594,6.594,0,0,1,.656-.982q9.3-9.319,18.61-18.621c2.27-2.27,4.793-2.278,7.053-.017Q76.336,11,85.648,20.3a7.892,7.892,0,0,1,2.211,3.183V25.2a7.964,7.964,0,0,1-2.274,3.243c-2.063,2.02-4.068,4.1-6.143,6.1a2.169,2.169,0,0,1-1.471.63,1.6,1.6,0,0,1-1.142-.941,1.918,1.918,0,0,1,.4-1.522c1.015-1.159,2.15-2.211,3.24-3.3,1.274-1.276,2.55-2.544,3.814-3.827a1.507,1.507,0,0,0-.011-2.506Q74.519,13.309,64.749,3.55a1.5,1.5,0,0,0-2.45-.021q-9.71,9.694-19.406,19.4a2.087,2.087,0,0,0-.164.218c.193.206.4.431.607.644q5.4,5.4,10.794,10.794a6.321,6.321,0,0,1,.53.559,1.475,1.475,0,0,1-.09,1.953,1.425,1.425,0,0,1-1.947.09,6.54,6.54,0,0,1-.557-.531Q44.911,29.5,37.759,22.34c-.241-.242-.437-.527-.7-.843-2.287,2.3-4.459,4.49-6.641,6.671Q19.453,39.149,8.477,50.125C1.1,57.512,1.1,68.292,8.485,75.688c1.475,1.477,2.928,2.976,4.444,4.409a17.493,17.493,0,0,0,24.138-.078c1.407-1.343,2.757-2.74,4.139-4.107a1.546,1.546,0,0,1,2.268-.256c.679.641.618,1.5-.2,2.32-1.367,1.379-2.73,2.769-4.132,4.114a20.118,20.118,0,0,1-11.7,5.572,2.525,2.525,0,0,0-.473.154Z" transform="translate(0 0.001)" fill="#ee7d50"/><path d="M3.87,44.59A14.375,14.375,0,0,1,7.9,34.962C8.8,34,9.533,33.98,10.457,34.9q11.283,11.27,22.555,22.549c.964.965.941,1.693-.037,2.629a14.6,14.6,0,0,1-19.915.129c-1.836-1.716-3.6-3.511-5.331-5.336A14.741,14.741,0,0,1,3.87,44.59m5.345-6.621A11.283,11.283,0,0,0,9.057,51.8a48.413,48.413,0,0,0,6.925,6.98,11.234,11.234,0,0,0,14.006-.062L9.215,37.969" transform="translate(2.022 17.88)" fill="#ee7d50"/><path d="M43.069,19.01a6.191,6.191,0,0,1-1.149-.7c-1.536-1.49-3.048-3.01-4.549-4.535a1.468,1.468,0,0,1-.011-2.325q2.281-2.32,4.6-4.6a1.436,1.436,0,0,1,2.259.015q2.325,2.279,4.6,4.6a1.447,1.447,0,0,1,.014,2.264q-2.3,2.359-4.668,4.659a5.378,5.378,0,0,1-1.1.623m.105-8.966L40.6,12.584c.822.839,1.69,1.726,2.509,2.561l2.561-2.561-2.492-2.539" transform="translate(19.222 3.295)" fill="#ee7d50"/><path d="M55.848,18.948a7.123,7.123,0,0,1-.757,1.186c-1.472,1.515-2.97,3.005-4.476,4.488a1.493,1.493,0,0,1-2.387.009q-2.259-2.224-4.482-4.482a1.508,1.508,0,0,1,.021-2.45q2.2-2.222,4.421-4.42a1.5,1.5,0,0,1,2.447-.009c1.5,1.483,3,2.972,4.474,4.488a6.764,6.764,0,0,1,.738,1.189m-6.505,2.521c.869-.877,1.76-1.772,2.541-2.559-.8-.811-1.669-1.694-2.447-2.485-.839.827-1.722,1.7-2.567,2.536.83.842,1.7,1.726,2.472,2.507" transform="translate(22.531 6.608)" fill="#ee7d50"/><path d="M46.748,41.333a5.488,5.488,0,0,1,4.671,3.1,5.787,5.787,0,0,1-.28,6.029,3.751,3.751,0,0,0-.472,1.559c-.078.878,0,1.769-.03,2.654a4.378,4.378,0,0,1-8.749.006c-.015-.4-.011-.8-.006-1.2a7.069,7.069,0,0,0-.8-3.721c-2.086-3.811.836-8.424,5.669-8.43M44.8,52.427c0,.629-.011,1.258,0,1.886.021,1.025.579,1.641,1.465,1.64s1.44-.614,1.452-1.646c.012-1.114-.07-2.236.032-3.34a3.473,3.473,0,0,1,.655-1.754,2.986,2.986,0,0,0-.1-4.106,2.916,2.916,0,0,0-4.094,0,3.008,3.008,0,0,0-.09,4.112,4.032,4.032,0,0,1,.653,1.67,7.393,7.393,0,0,1,.023,1.538" transform="translate(21.103 21.593)" fill="#ee7d50"/></g></g></svg>