<svg xmlns="http://www.w3.org/2000/svg" xmlns:xlink="http://www.w3.org/1999/xlink" width="95.677" height="87.816" viewBox="0 0 95.677 87.816"><defs><clipPath id="a"><rect width="95.677" height="87.816" fill="#ee7d50"/></clipPath></defs><g transform="translate(0 0)" clip-path="url(#a)"><path d="M72.473,87.816c-2.106-.4-4.243-.684-6.307-1.242a12.393,12.393,0,0,1-6.092-3.587c-1.1-1.215-1.106-1.7-.2-3.089a2.865,2.865,0,0,0,.144-3.383,15.881,15.881,0,0,1-1.433-2.993,10.1,10.1,0,0,1,.225-7.774c-2.3.913-4.472,1.308-6.52-.159A6.794,6.794,0,0,1,49.414,59.9c-3.288-.991-5-2.84-5.106-5.628a7,7,0,0,1,2.917-5.83,2.273,2.273,0,0,0,.815-2.861c-2.908-10.417-5.752-20.85-8.619-31.279q-1.623-5.9,4.3-7.534Q55.528,3.538,67.334.293C70.89-.683,73.55.8,74.518,4.328q4.844,17.635,9.659,35.277a2.952,2.952,0,0,0,1.3,1.92c1.576.963,3.129,1.967,4.722,2.9a7.574,7.574,0,0,1,3.534,9.488c-1.969,5.536-4,11.05-5.971,16.587a19.409,19.409,0,0,0-.75,9.06,3.188,3.188,0,0,1-.373,1.881,10.145,10.145,0,0,1-5.312,4.309c-2.181.822-4.5,1.288-6.753,1.907-.226.062-.455.107-.683.16ZM72.3,48.676a.723.723,0,0,0,.216-.013q3.695-1.006,7.387-2.022c1.965-.538,2.46-1.389,1.927-3.332Q76.664,24.455,71.5,5.6c-.636-2.318-1.356-2.732-3.643-2.1Q56.142,6.707,44.43,9.912c-1.937.529-2.451,1.408-1.923,3.341Q45.6,24.579,48.693,35.9q2.168,7.92,4.355,15.837c.32,1.159,1,1.795,1.966,1.62,1.472-.263,2.915-.693,4.393-1.056-.094-.354-.133-.55-.2-.738-.866-2.436-1.761-4.861-2.6-7.308a4.858,4.858,0,0,1,5.245-6.541,10.525,10.525,0,0,1,7.931,5.455,53.633,53.633,0,0,1,2.515,5.5m5.579,10.217c.739.283,1.492.613,2.27.86,1.14.364,1.66,1.08,1.416,2.063a1.6,1.6,0,0,1-2.255,1.047,23.163,23.163,0,0,1-3.806-1.8c-3.049-1.837-4.44-4.827-5.435-8.086-.7-2.278-1.409-4.558-2.27-6.777a8.619,8.619,0,0,0-5.275-5.1,2.3,2.3,0,0,0-2.55.387c-.737.708-.371,1.506-.1,2.256.633,1.771,1.323,3.521,1.963,5.288a24.556,24.556,0,0,1-.173,18.4,6.808,6.808,0,0,0,.234,5.579,19.653,19.653,0,0,0,1.187,2.334,5.343,5.343,0,0,1,.451,4.378c-.145.554-.549,1.239-.358,1.631.246.5.956.8,1.5,1.13a10.538,10.538,0,0,0,1.445.708,17.762,17.762,0,0,0,9.317,1.081,13.649,13.649,0,0,0,7.679-3.511,2,2,0,0,0,.647-1.778,35.978,35.978,0,0,1-.04-4.727c.235-3.5,1.638-6.705,2.792-9.96,1.381-3.892,2.878-7.743,4.276-11.629a4.364,4.364,0,0,0-1.209-4.782c-1.352-.924-2.808-1.692-4.313-2.583-.723,3.5-3.44,4.36-6.552,4.959,1,.734,1.52,1.551,2.795,1.271,1.111-.245,1.926,1.191,1.4,2.252a4.01,4.01,0,0,1-.783,1.045c-1.361,1.33-2.747,2.634-4.246,4.063M60.138,55.306a23.477,23.477,0,0,0-2.921,1.253c-1.34.8-2.594,1.751-3.876,2.648-.23.161-.576.346-.614.564-.294,1.735,1.351,4.109,3.2,3.457a27.783,27.783,0,0,0,3.9-1.989.78.78,0,0,0,.3-.585c.023-1.7.013-3.4.013-5.348m12.874-3.253,2.054,4.631L78.371,54.2c-.8-.679-1.523-1.274-2.227-1.887-1.256-1.095-1.381-1.114-3.132-.261m-23.572-1.2c-1.889,1.435-2.417,3.441-1.326,4.816a3.059,3.059,0,0,0,4.228.271c-1.94-1.122-2.371-3.126-2.9-5.086" transform="translate(1.435 0)" fill="#ee7d50"/><path d="M0,37.267a59.109,59.109,0,0,1,1.488-6.034c2.329-6.547,6.776-11.452,12.39-15.373A50.059,50.059,0,0,1,33.465,7.994c.759-.145,1.515-.329,2.28-.416a1.614,1.614,0,0,1,1.971,1.4A1.721,1.721,0,0,1,36.184,10.8c-2.653.6-5.342,1.078-7.947,1.843-7.47,2.193-14.086,5.846-19.182,11.875a22.544,22.544,0,0,0-5.8,15.81A22.919,22.919,0,0,0,9.27,54.74c5.252,6.034,12.013,9.6,19.587,11.795a58.349,58.349,0,0,0,23.1,1.542,1.7,1.7,0,0,1,2.117,1.353c.146.94-.5,1.726-1.674,1.859-13.373,1.5-26.121-.2-37.661-7.642-5.989-3.86-10.705-8.9-13.18-15.715A51.111,51.111,0,0,1,.191,42.373C.122,42.086.063,41.8,0,41.507v-4.24" transform="translate(0 0.277)" fill="#ee7d50"/><path d="M37.439,39.132A37.959,37.959,0,0,1,33.3,55.6a1.61,1.61,0,1,1-2.871-1.4,37.629,37.629,0,0,0,3.4-10.5,32.144,32.144,0,0,0-2.758-18.458c-.232-.521-.492-1.03-.711-1.557a1.612,1.612,0,0,1,.7-2.236,1.577,1.577,0,0,1,2.186.827,37.52,37.52,0,0,1,4.011,13.735c.088,1.038.123,2.08.182,3.119" transform="translate(1.108 0.781)" fill="#ee7d50"/><path d="M26.989,38.877a27.5,27.5,0,0,0-2.7-10.991c-.209-.459-.46-.9-.64-1.37a1.606,1.606,0,1,1,2.917-1.344,33.6,33.6,0,0,1,3.257,9.494C30.913,41,29.422,46.874,26.6,52.5a1.612,1.612,0,1,1-2.863-1.451,30.639,30.639,0,0,0,2.937-8.963c.146-1.065.209-2.14.311-3.211" transform="translate(0.863 0.889)" fill="#ee7d50"/><path d="M23.035,38.79A23.151,23.151,0,0,1,19.9,49.421a1.6,1.6,0,0,1-2.229.717,1.663,1.663,0,0,1-.6-2.269,47.33,47.33,0,0,0,2.249-5.9c1-3.956.074-7.714-1.723-11.294-.18-.36-.385-.709-.548-1.076a1.6,1.6,0,0,1,.589-2.189,1.524,1.524,0,0,1,2.223.677c.977,2.342,1.912,4.709,2.692,7.12a19.388,19.388,0,0,1,.479,3.582" transform="translate(0.619 0.998)" fill="#ee7d50"/><path d="M15.906,38.607a13.563,13.563,0,0,1-1.784,6.643c-.6,1.039-1.47,1.377-2.333.921a1.638,1.638,0,0,1-.507-2.431,10.143,10.143,0,0,0,.052-10.114,1.663,1.663,0,0,1,.486-2.449c.857-.486,1.723-.163,2.327.881a13.5,13.5,0,0,1,1.758,6.549" transform="translate(0.403 1.136)" fill="#ee7d50"/><path d="M56.66,26.219c-.442-.479-1.119-.887-1.288-1.447-.971-3.244-1.846-6.518-2.7-9.8a1.458,1.458,0,0,1,1.095-1.883c2.674-.771,5.357-1.516,8.053-2.206A1.511,1.511,0,0,1,63.812,12.1Q65.166,16.89,66.45,21.7a1.466,1.466,0,0,1-.944,1.966c-2.795.834-5.619,1.57-8.433,2.341a.856.856,0,0,1-.2.01l-.214.2M61.07,14.4l-4.842,1.366c.626,2.3,1.215,4.453,1.813,6.642l4.851-1.33c-.606-2.223-1.2-4.381-1.822-6.679" transform="translate(1.931 0.397)" fill="#ee7d50"/></g></svg>