<svg xmlns="http://www.w3.org/2000/svg" xmlns:xlink="http://www.w3.org/1999/xlink" width="52.037" height="41.873" viewBox="0 0 52.037 41.873"><defs><clipPath id="a"><rect width="52.037" height="41.873" fill="#000f30"/></clipPath></defs><g clip-path="url(#a)"><path d="M0,37.062A4.712,4.712,0,0,1,1.141,35.01,3.888,3.888,0,0,1,3.9,33.917H27.364c.665,0,1.026.282,1.018.786s-.342.754-1.043.754q-11.556,0-23.112.007a3.949,3.949,0,0,0-1.149.142,2.258,2.258,0,0,0-1.553,2.307q-.006,4.85,0,9.7,0,7.06,0,14.119a2.351,2.351,0,0,0,2.628,2.632q18.82,0,37.64,0a2.347,2.347,0,0,0,2.61-2.6q0-6.933,0-13.866a2.162,2.162,0,0,1,.011-.456.762.762,0,0,1,1.5-.006,2.067,2.067,0,0,1,.013.456c0,4.656-.047,9.312.022,13.967a3.983,3.983,0,0,1-4.053,4.058q-18.921-.041-37.843-.013A3.82,3.82,0,0,1,.081,62.89.5.5,0,0,0,0,62.765v-25.7" transform="translate(0 -24.049)" fill="#000f30"/><path d="M15.713,57.991c0-1.524,0-3.048,0-4.572a3.794,3.794,0,0,1,3.767-3.8c3.031-.015,6.062-.01,9.093,0a3.8,3.8,0,0,1,3.875,3.752q.064,4.647,0,9.3a3.843,3.843,0,0,1-3.833,3.7q-4.5.012-8.992,0a3.8,3.8,0,0,1-3.911-3.909q0-2.235,0-4.47m14.281,6.346a2.128,2.128,0,0,0,.894-1.786c.006-3.029.018-6.058,0-9.088a2.2,2.2,0,0,0-2.271-2.292q-4.544-.045-9.089,0a2.221,2.221,0,0,0-2.279,2.246c-.027,3.046-.017,6.092,0,9.138a2.212,2.212,0,0,0,.9,1.788,6.484,6.484,0,0,1,3.186-3.686,4.5,4.5,0,0,1-.355-6.728,4.46,4.46,0,1,1,5.841,6.724,6.45,6.45,0,0,1,3.178,3.682m-5.916-4.322a2.91,2.91,0,0,0,2.912-2.9,2.948,2.948,0,0,0-2.917-2.907,2.894,2.894,0,0,0-2.888,2.913,2.862,2.862,0,0,0,2.893,2.89M19.7,64.809H28.45a4.584,4.584,0,0,0-8.751,0" transform="translate(-11.14 -35.179)" fill="#000f30"/><path d="M91.311,17.487c-.283-.486-.5-.922-.783-1.314a.72.72,0,0,0-.518-.184c-1.608-.014-3.217-.008-4.825-.008-.135,0-.271,0-.406,0q-.98-.016-.98-.763c0-.5.338-.776.971-.777q2.209,0,4.419,0h.562c-.129-.772-.311-1.507-.367-2.251a10.667,10.667,0,0,1,5.63-10.756,11.055,11.055,0,1,1,7.057,20.583,10.844,10.844,0,0,1-9.044-2.651,1.431,1.431,0,0,0-.843-.322c-2.438-.025-4.876-.013-7.314-.018a1.655,1.655,0,0,1-.644-.084.7.7,0,0,1-.414-.838.721.721,0,0,1,.715-.609c.456-.022.914-.008,1.371-.008h5.414m-.447-6.419a9.522,9.522,0,1,0,9.527-9.512,9.535,9.535,0,0,0-9.527,9.512" transform="translate(-59.412 0.001)" fill="#000f30"/><path d="M34.1,113.929H16.887a2.422,2.422,0,0,1-.506-.014.726.726,0,0,1-.65-.778.7.7,0,0,1,.686-.735,4.389,4.389,0,0,1,.507-.014H51.294a4.991,4.991,0,0,1,.507.013.706.706,0,0,1,.7.722.747.747,0,0,1-.687.8,4.091,4.091,0,0,1-.507.009H34.1" transform="translate(-11.153 -79.688)" fill="#000f30"/><path d="M34.053,124.4H16.893a2.279,2.279,0,0,1-.556-.022.724.724,0,0,1-.612-.809.7.7,0,0,1,.674-.694,4.88,4.88,0,0,1,.558-.016h34.32c.169,0,.339,0,.507.011a.709.709,0,0,1,.713.712.747.747,0,0,1-.675.808,3.822,3.822,0,0,1-.507.01H34.053" transform="translate(-11.148 -87.116)" fill="#000f30"/><path d="M92.308,92.978H84.952a3.31,3.31,0,0,1-.456-.01.746.746,0,0,1-.673-.808.708.708,0,0,1,.711-.712c.151-.014.3-.011.456-.011H99.6c.118,0,.237,0,.355,0,.525.027.827.3.829.758a.774.774,0,0,1-.866.778c-.473.009-.947,0-1.42,0H92.308" transform="translate(-59.433 -64.833)" fill="#000f30"/><path d="M92.31,103.454H84.954a3.406,3.406,0,0,1-.456-.009.747.747,0,0,1-.675-.807.708.708,0,0,1,.709-.714c.151-.014.3-.011.456-.011H99.6a4.385,4.385,0,0,1,.507.015.7.7,0,0,1,.675.693.729.729,0,0,1-.609.811,1.771,1.771,0,0,1-.454.021H92.31" transform="translate(-59.433 -72.261)" fill="#000f30"/><path d="M126.728,35.47a6.975,6.975,0,0,1-1.247-.7c-.672-.59-1.283-1.25-1.909-1.89a.8.8,0,0,1-.093-1.2c.353-.341.765-.3,1.2.122.578.569,1.162,1.134,1.717,1.726.262.281.427.265.691,0q2.423-2.454,4.876-4.878c.162-.161.374-.366.571-.375a.956.956,0,0,1,.736.267,1.6,1.6,0,0,1,.083.838c0,.079-.112.163-.184.234-1.733,1.734-3.454,3.479-5.212,5.187a5.554,5.554,0,0,1-1.228.677" transform="translate(-87.389 -20.042)" fill="#000f30"/></g></svg>