<svg xmlns="http://www.w3.org/2000/svg" xmlns:xlink="http://www.w3.org/1999/xlink" width="50.59" height="33.777" viewBox="0 0 50.59 33.777"><defs><clipPath id="a"><rect width="50.59" height="33.777" fill="#000f30"/></clipPath></defs><g transform="translate(0 0)"><g transform="translate(0 0)" clip-path="url(#a)"><path d="M50.59,29.242a13.3,13.3,0,0,1-.876,2.117,5.1,5.1,0,0,1-4.239,2.412c-.115.007-.23.005-.346.005q-19.829,0-39.658,0a5.266,5.266,0,0,1-5.2-3.638A5.45,5.45,0,0,1,.013,28.5Q-.012,16.887,0,5.28A5.281,5.281,0,0,1,5.078.007C5.226,0,5.374,0,5.522,0Q25.3,0,45.081,0A5.316,5.316,0,0,1,50.33,3.645c.1.293.174.594.26.891ZM2.166,14.82a1.589,1.589,0,0,0-.038.228c0,4.5-.028,8.991.016,13.486a3.054,3.054,0,0,0,3.267,3.088q19.881,0,39.762,0a3.624,3.624,0,0,0,.783-.064,3.1,3.1,0,0,0,2.505-3.214c.013-4.38,0-8.761,0-13.141a3.231,3.231,0,0,0-.046-.384ZM48.415,8.505H2.185v4.108H48.415ZM2.187,6.284H48.466c0-.2-.009-.369,0-.532A3.316,3.316,0,0,0,44.9,2.127Q25.193,2.2,5.485,2.133a3.3,3.3,0,0,0-3.3,4.151" transform="translate(0 0)" fill="#000f30"/><path d="M81.993,43.233a9.214,9.214,0,0,1-.016,1.624,3,3,0,0,1-2.72,2.534,13.662,13.662,0,0,1-3.1-.049,2.957,2.957,0,0,1-2.529-2.758,20.13,20.13,0,0,1-.019-2.564,3.04,3.04,0,0,1,2.793-3,13.257,13.257,0,0,1,3.1.058A3.035,3.035,0,0,1,82.034,42.1c0,.378,0,.757,0,1.135h-.042M77.8,45.292c.346,0,.691.007,1.036,0a.975.975,0,0,0,1.058-.992c.032-.722.032-1.447,0-2.17a.973.973,0,0,0-1.047-1q-1.035-.018-2.072,0a1.015,1.015,0,0,0-1.055,1.014c-.031.706-.03,1.415,0,2.121a1.028,1.028,0,0,0,1.091,1.03c.329.008.658,0,.987,0" transform="translate(-37.769 -19.994)" fill="#000f30"/><path d="M20.348,51.979q3.083,0,6.166,0a1.125,1.125,0,0,1,1.189.764,1.072,1.072,0,0,1-1.056,1.382c-.443.02-.888,0-1.332,0q-5.525,0-11.05,0c-.723,0-1.192-.343-1.269-.91a1.081,1.081,0,0,1,1.185-1.238c2.055-.008,4.111,0,6.166,0" transform="translate(-6.665 -26.68)" fill="#000f30"/><path d="M20.331,45.453q-3.063,0-6.125,0A1.062,1.062,0,0,1,13,44.443a1.04,1.04,0,0,1,1.168-1.106q6.2-.017,12.4,0a1.057,1.057,0,0,1,1.187,1.093c-.017.646-.472,1.023-1.245,1.024q-3.087,0-6.174,0" transform="translate(-6.672 -22.241)" fill="#000f30"/></g></g></svg>